<svg id="Layer_1" height="512" viewBox="0 0 128 128" width="512" xmlns="http://www.w3.org/2000/svg" data-name="Layer 1"><path d="m90.463 68.833c-.664-1.362-1.332-2.648-2.042-3.931-1.137-2.065-2.413-4.191-3.8-6.319a13.772 13.772 0 0 0 -11.571-6.323h-.024a9.05 9.05 0 0 0 -18.051 0h-.025a13.77 13.77 0 0 0 -11.575 6.323c-1.383 2.129-2.66 4.256-3.8 6.319-.71 1.283-1.378 2.569-2.04 3.927q-.845 1.721-1.585 3.419c-3.455 7.927-5.2 15.485-5.2 22.512v26.74a1.75 1.75 0 0 0 1.75 1.75h63a1.75 1.75 0 0 0 1.75-1.75v-26.74c0-8.031-2.284-16.755-6.787-25.927zm-26.463-21.453a5.5 5.5 0 0 1 5.493 4.88h-11.007a5.565 5.565 0 0 1 5.514-4.88zm-17.689 13.108a10.282 10.282 0 0 1 8.639-4.728h18.1a10.282 10.282 0 0 1 8.639 4.728c.764 1.177 1.483 2.348 2.174 3.512h-39.726c.691-1.163 1.41-2.335 2.174-3.512zm-5.627 9.879c.288-.591.577-1.163.87-1.73.086-.166.173-.33.259-.5.113-.215.23-.428.344-.642h43.685c.114.212.23.423.342.636.089.17.179.34.267.511.291.565.58 1.135.867 1.725 4.268 8.691 6.432 16.9 6.432 24.388v.49h-59.5v-.49c0-7.486 2.164-15.692 6.434-24.388zm-6.434 49.383v-21h59.5v21z"/><path d="m64 101.5a7.75 7.75 0 1 0 7.75 7.75 7.759 7.759 0 0 0 -7.75-7.75zm0 12a4.25 4.25 0 1 1 4.25-4.25 4.255 4.255 0 0 1 -4.25 4.25z"/><path d="m44.2 26.308a4.75 4.75 0 1 0 -4.75-4.75 4.756 4.756 0 0 0 4.75 4.75zm0-6a1.25 1.25 0 1 1 -1.25 1.25 1.251 1.251 0 0 1 1.25-1.25z"/><path d="m44.2 14.25a4.75 4.75 0 1 0 -4.75-4.75 4.756 4.756 0 0 0 4.75 4.75zm0-6a1.25 1.25 0 1 1 -1.25 1.25 1.251 1.251 0 0 1 1.25-1.25z"/><path d="m57.4 38.366a4.75 4.75 0 1 0 -4.75-4.75 4.755 4.755 0 0 0 4.75 4.75zm0-6a1.25 1.25 0 1 1 -1.25 1.25 1.251 1.251 0 0 1 1.25-1.25z"/><path d="m57.4 26.308a4.75 4.75 0 1 0 -4.75-4.75 4.755 4.755 0 0 0 4.75 4.75zm0-6a1.25 1.25 0 1 1 -1.25 1.25 1.251 1.251 0 0 1 1.25-1.25z"/><path d="m57.4 14.25a4.75 4.75 0 1 0 -4.75-4.75 4.755 4.755 0 0 0 4.75 4.75zm0-6a1.25 1.25 0 1 1 -1.25 1.25 1.251 1.251 0 0 1 1.25-1.25z"/><path d="m70.6 38.366a4.75 4.75 0 1 0 -4.75-4.75 4.756 4.756 0 0 0 4.75 4.75zm0-6a1.25 1.25 0 1 1 -1.25 1.25 1.252 1.252 0 0 1 1.25-1.25z"/><path d="m70.6 26.308a4.75 4.75 0 1 0 -4.75-4.75 4.756 4.756 0 0 0 4.75 4.75zm0-6a1.25 1.25 0 1 1 -1.25 1.25 1.252 1.252 0 0 1 1.25-1.25z"/><path d="m70.6 14.25a4.75 4.75 0 1 0 -4.75-4.75 4.756 4.756 0 0 0 4.75 4.75zm0-6a1.25 1.25 0 1 1 -1.25 1.25 1.252 1.252 0 0 1 1.25-1.25z"/><path d="m83.805 26.308a4.75 4.75 0 1 0 -4.75-4.75 4.756 4.756 0 0 0 4.75 4.75zm0-6a1.25 1.25 0 1 1 -1.25 1.25 1.252 1.252 0 0 1 1.25-1.25z"/><path d="m83.805 14.25a4.75 4.75 0 1 0 -4.75-4.75 4.756 4.756 0 0 0 4.75 4.75zm0-6a1.25 1.25 0 1 1 -1.25 1.25 1.252 1.252 0 0 1 1.25-1.25z"/></svg>