<svg id="Layer_1" height="512" viewBox="0 0 128 128" width="512" xmlns="http://www.w3.org/2000/svg" data-name="Layer 1"><path d="m93.1 102.035a45.069 45.069 0 0 0 9.417-57.887 14.213 14.213 0 0 0 -4.3-21.239l-.017-.009-14.174-9.154a10.365 10.365 0 0 1 -2.965-2.9 13.877 13.877 0 0 0 -11.5-6.1h-11.123a13.877 13.877 0 0 0 -11.5 6.1 10.365 10.365 0 0 1 -2.965 2.9l-14.173 9.154-.012.009a14.246 14.246 0 0 0 -7.348 12.451 14.1 14.1 0 0 0 2.981 8.7 45.067 45.067 0 0 0 9.472 58.073l-3.612 19.042a1.749 1.749 0 0 0 1.719 2.075h7.67a1.75 1.75 0 0 0 1.59-1.018l5.712-12.407a45.027 45.027 0 0 0 32.036-.041l5.733 12.448a1.748 1.748 0 0 0 1.589 1.018h7.67a1.749 1.749 0 0 0 1.719-2.076zm8.96-66.675a10.645 10.645 0 0 1 -1.638 5.677 45.436 45.436 0 0 0 -16.165-13.745 10.609 10.609 0 0 1 7.063-2.672 10.752 10.752 0 0 1 10.74 10.74zm-56.187-18.674a13.811 13.811 0 0 0 3.962-3.875 10.385 10.385 0 0 1 8.6-4.561h11.127a10.385 10.385 0 0 1 8.6 4.561 13.811 13.811 0 0 0 3.962 3.875l7.124 4.6a14.028 14.028 0 0 0 -8.4 4.455 44.883 44.883 0 0 0 -15.1-3.253v-3.321h2.583a1.75 1.75 0 0 0 0-3.5h-8.664a1.75 1.75 0 1 0 0 3.5h2.583v3.318a44.828 44.828 0 0 0 -15.135 3.221 14.059 14.059 0 0 0 -8.366-4.42zm-19.933 18.674a10.752 10.752 0 0 1 10.74-10.74 10.616 10.616 0 0 1 7.02 2.632 45.452 45.452 0 0 0 -16.18 13.692 10.628 10.628 0 0 1 -1.58-5.584zm13.609 84.39h-4.436l2.887-15.226a45.172 45.172 0 0 0 6.747 3.934zm-17.265-52.15a41.654 41.654 0 1 1 41.654 41.65 41.7 41.7 0 0 1 -41.654-41.65zm66.167 52.15-5.222-11.338a45.226 45.226 0 0 0 6.76-3.969l2.9 15.307z"/><path d="m65.69 62.121v-18.501a1.75 1.75 0 0 0 -3.5 0v18.5a5.742 5.742 0 0 0 -3 8.719l-7.165 9.206a1.75 1.75 0 0 0 2.762 2.15l7.165-9.208a5.746 5.746 0 1 0 3.738-10.866zm-1.752 7.725a2.249 2.249 0 0 1 -.018-4.5h.02.018a2.249 2.249 0 0 1 -.02 4.5z"/><path d="m89.588 93.047a36.04 36.04 0 0 0 10.5-25.368v-.021-.012c0-.017 0-.033 0-.05a36.032 36.032 0 0 0 -10.388-25.333 1.689 1.689 0 0 0 -.153-.187 1.613 1.613 0 0 0 -.159-.13 36.036 36.036 0 0 0 -25.367-10.5h-.021-.012-.05a36.025 36.025 0 0 0 -25.338 10.389 1.786 1.786 0 0 0 -.188.152 1.758 1.758 0 0 0 -.129.159 36.036 36.036 0 0 0 -10.5 25.367v.021.013.049a36.03 36.03 0 0 0 10.393 25.333 1.8 1.8 0 0 0 .153.188 1.745 1.745 0 0 0 .158.129 36.036 36.036 0 0 0 25.368 10.5h.021.062a36.03 36.03 0 0 0 25.333-10.388 1.689 1.689 0 0 0 .187-.153 1.6 1.6 0 0 0 .13-.158zm-2.335-4.524a1.75 1.75 0 0 0 -2.476 2.477l.92.92a32.523 32.523 0 0 1 -20.071 8.289v-1.329a1.75 1.75 0 0 0 -3.5 0v1.32a32.519 32.519 0 0 1 -20.041-8.361l.926-.925a1.75 1.75 0 0 0 -2.475-2.475l-.919.919a32.517 32.517 0 0 1 -8.289-20.071h1.326a1.75 1.75 0 1 0 0-3.5h-1.317a32.522 32.522 0 0 1 8.363-20.043l.925.925a1.75 1.75 0 0 0 2.475-2.475l-.92-.919a32.517 32.517 0 0 1 20.07-8.289v1.327a1.75 1.75 0 0 0 3.5 0v-1.318a32.53 32.53 0 0 1 20.041 8.361l-.926.925a1.75 1.75 0 0 0 2.475 2.476l.919-.92a32.517 32.517 0 0 1 8.289 20.071h-1.326a1.75 1.75 0 0 0 0 3.5h1.317a32.524 32.524 0 0 1 -8.361 20.041z"/></svg>