<svg id="Layer_1" height="512" viewBox="0 0 128 128" width="512" xmlns="http://www.w3.org/2000/svg" data-name="Layer 1"><path d="m60.366 94.913a7.75 7.75 0 1 0 7.75 7.75 7.758 7.758 0 0 0 -7.75-7.75zm0 12a4.25 4.25 0 1 1 4.25-4.25 4.255 4.255 0 0 1 -4.25 4.25z"/><path d="m97.727 36.526a1.747 1.747 0 0 0 -1.3-.576h-7.108l1.5-15.061a1.744 1.744 0 0 0 -.058-1.2l-3.458-8.042a1.752 1.752 0 0 0 -1.603-1.064h-18.9v-4.083a1.75 1.75 0 0 0 -1.75-1.75h-9.37a1.751 1.751 0 0 0 -1.75 1.75v4.083h-18.9a1.75 1.75 0 0 0 -1.608 1.059l-3.458 8.042a1.741 1.741 0 0 0 -.058 1.208l6.859 68.674-4.3 25.847a1.749 1.749 0 0 0 1.735 2.037h3.013v4.25a1.75 1.75 0 0 0 1.75 1.75h6a1.75 1.75 0 0 0 1.75-1.75v-4.25h27.307v4.25a1.749 1.749 0 0 0 1.75 1.75h6a1.75 1.75 0 0 0 1.75-1.75v-4.25h3.012a1.75 1.75 0 0 0 1.727-2.037l-4.3-25.847 2.883-28.816h7.468a1.75 1.75 0 0 0 1.741-1.577l2.12-21.3a1.748 1.748 0 0 0 -.444-1.347zm-58.488 42.557h4.127a1.75 1.75 0 0 0 0-3.5h-4.477l-.668-6.683h4.145a1.75 1.75 0 0 0 0-3.5h-4.495l-.671-6.692h4.163a1.75 1.75 0 0 0 0-3.5h-4.509l-.668-6.687h4.18a1.75 1.75 0 0 0 0-3.5h-4.53l-.668-6.688h4.2a1.75 1.75 0 0 0 0-3.5h-4.549l-1.27-12.708h53.634l-6.568 65.75h-40.5zm18.191-70.833h5.87v2.333h-5.87zm-21.245 5.833h48.362l1.953 4.542h-52.268zm7.027 105.867h-2.5v-2.5h2.5zm36.808 0h-2.5v-2.5h2.5zm1.75-6h-45.506l3.752-22.575h40.7l3.752 22.575zm10.956-56.7h-5.534l1.777-17.8h5.531z"/><path d="m81.369 55.174 1.728-17.3a1.75 1.75 0 0 0 -3.483-.348l-1.727 17.3a1.75 1.75 0 1 0 3.482.348z"/></svg>