<svg id="Layer_1" height="512" viewBox="0 0 128 128" width="512" xmlns="http://www.w3.org/2000/svg" data-name="Layer 1"><path d="m105.045 17.256-.208-.208a23.393 23.393 0 0 0 -25.737-4.934l-6.863-6.852a1.75 1.75 0 0 0 -2.475 0l-9.762 9.771a1.747 1.747 0 0 0 -.4 1.839l-28.238 26.756a7.742 7.742 0 0 0 -2.48 15.283l24.007 45.008a10.826 10.826 0 0 0 -4.532 6.831h-5.882a10.762 10.762 0 0 0 -10.75 10.75 1.751 1.751 0 0 0 1.75 1.75h54.276a1.751 1.751 0 0 0 1.75-1.75 10.762 10.762 0 0 0 -10.75-10.75h-5.874a10.715 10.715 0 0 0 -10.209-8.674l-25.4-47.637a7.7 7.7 0 0 0 .679-3.159c0-.258-.014-.513-.038-.764l28.291-26.816.655.655a23.4 23.4 0 0 0 4.929 25.745l.208.208a1.75 1.75 0 0 0 2.474 0l8.924-8.924a9.173 9.173 0 0 0 11.62-1.121 9.209 9.209 0 0 0 1.112-11.611l8.923-8.924a1.748 1.748 0 0 0 0-2.472zm-48.974 85.193-23.383-43.839a7.72 7.72 0 0 0 2.2-1.181l23.812 44.641a10.671 10.671 0 0 0 -2.629.379zm-30.129-51.169a4.25 4.25 0 1 1 7.8 2.333l-.007.014a4.247 4.247 0 0 1 -7.789-2.347zm59.846 68.47h-50.35a7.265 7.265 0 0 1 7.037-5.5h36.276a7.264 7.264 0 0 1 7.037 5.5zm-16.507-9h-17.323a7.28 7.28 0 0 1 3.991-4.564 7.109 7.109 0 0 1 2.941-.626h3.45a7.244 7.244 0 0 1 6.941 5.19zm-32.681-63.821a7.779 7.779 0 0 0 -1.725-1.809l27.082-25.658 1.765 1.764zm27.114-30.659 7.286-7.295 4.851 4.844a22.742 22.742 0 0 0 -7.3 7.293zm28.819 21.522a5.6 5.6 0 0 1 -6.575 1.026l7.594-7.594a5.679 5.679 0 0 1 -1.019 6.568zm.01-10.508-.008.006-.007.008-10.49 10.49v.006l-8.772 8.766a19.874 19.874 0 0 1 28.034-28.029z"/></svg>