<svg id="Layer_1" height="512" viewBox="0 0 128 128" width="512" xmlns="http://www.w3.org/2000/svg" data-name="Layer 1"><circle cx="44.095" cy="18.5" r="4"/><circle cx="44.095" cy="109.5" r="4"/><path d="m44.1 73.643a7.245 7.245 0 0 0 -1.75 14.278v7.559a1.75 1.75 0 0 0 3.5 0v-7.561a7.245 7.245 0 0 0 -1.75-14.276zm.017 11h-.029a3.748 3.748 0 1 1 .029 0z"/><path d="m103.808 36.774h-38.058v-19.274a1.749 1.749 0 0 0 -1.75-1.75 9.26 9.26 0 0 1 -9.25-9.25 1.749 1.749 0 0 0 -1.75-1.75h-17.81a1.75 1.75 0 0 0 -1.75 1.75 9.26 9.26 0 0 1 -9.25 9.25 1.75 1.75 0 0 0 -1.75 1.75v93a1.75 1.75 0 0 0 1.75 1.75 9.26 9.26 0 0 1 9.25 9.25 1.75 1.75 0 0 0 1.75 1.75h17.81a1.749 1.749 0 0 0 1.75-1.75 9.26 9.26 0 0 1 9.25-9.25 1.749 1.749 0 0 0 1.75-1.75v-59.226h38.058a1.75 1.75 0 0 0 1.75-1.75v-11a1.751 1.751 0 0 0 -1.75-1.75zm-41.558 72.096a12.775 12.775 0 0 0 -10.88 10.88h-14.55a12.775 12.775 0 0 0 -10.88-10.88v-89.74a12.775 12.775 0 0 0 10.88-10.88h14.55a12.775 12.775 0 0 0 10.88 10.88v17.644h-7.062a13.25 13.25 0 1 0 -.005 14.5h7.067zm-18.15-57.596h6.487a9.751 9.751 0 1 1 .007-14.5h-6.494a7.25 7.25 0 0 0 0 14.5zm57.962-3.5h-38.013c-.017 0-.032 0-.049 0s-.032 0-.049 0h-19.851a3.75 3.75 0 0 1 0-7.5h57.962z"/></svg>