<svg id="Layer_1" height="512" viewBox="0 0 128 128" width="512" xmlns="http://www.w3.org/2000/svg" data-name="Layer 1"><path d="m121.5 39.875h-15.942v-7.25a1.75 1.75 0 0 0 -1.75-1.75h-19.016c-.285-13.389-3.854-22.337-10.382-25.91a1.747 1.747 0 0 0 -1.68 0c-5.808 3.179-9.272 10.618-10.168 21.648v.012q-.166 2.043-.213 4.249h-46.849a10.762 10.762 0 0 0 -10.75 10.751 1.75 1.75 0 0 0 1.75 1.75h18.176l28.3 38.191-28.638 38.9a1.75 1.75 0 1 0 2.819 2.074l28-38.03 28.09 37.905a1.75 1.75 0 0 0 2.813-2.084l-28.731-38.773 28.113-38.183h36.058a1.75 1.75 0 0 0 0-3.5zm-47.93-31.323c3.862 2.646 6.376 8.3 7.325 16.323h-5.575v-6a1.75 1.75 0 0 0 -3.5 0v6h-5.575c.949-8.026 3.463-13.675 7.325-16.323zm-7.626 19.823h15.251c.048.816.086 1.645.106 2.5h-15.462c.019-.855.061-1.684.105-2.5zm-50.444 6h86.558v5.5h-93.595a7.264 7.264 0 0 1 7.037-5.5zm39.649 44.242-26.117-35.242h52.068z"/></svg>