<svg id="Layer_1" height="512" viewBox="0 0 128 128" width="512" xmlns="http://www.w3.org/2000/svg" data-name="Layer 1"><path d="m121.5 59.25h-1.67a5.256 5.256 0 0 1 -5.25-5.25v-22.81a8.75 8.75 0 0 0 -17.5 0v15.44h-1.253a1.75 1.75 0 0 0 -1.75 1.75v8.25h-23.227a69.173 69.173 0 0 0 -62.35 39.428h-2a1.749 1.749 0 0 0 -1.75 1.75v6a1.75 1.75 0 0 0 1.75 1.75h91.692a1.75 1.75 0 0 0 1.75-1.75v-6-.02-.668a5.9 5.9 0 0 1 5.89-5.89 1.75 1.75 0 0 0 1.75-1.75v-31.1a1.75 1.75 0 0 0 -1.75-1.75h-2.253v-8.25a1.75 1.75 0 0 0 -1.75-1.75h-1.249v-15.44a5.25 5.25 0 1 1 10.5 0v22.81a8.76 8.76 0 0 0 8.75 8.75h1.67a1.75 1.75 0 0 0 0-3.5zm-113.25 42.808v-2.5h1.33.02 86.842v2.5zm95.83-14.164a9.412 9.412 0 0 0 -7.58 8.164h-84.118a65.683 65.683 0 0 1 58.468-35.928h33.23zm-6.5-31.264v-6.5h2.5v6.5z"/><path d="m30.874 76.953a63.269 63.269 0 0 0 -9.84 10.095 1.75 1.75 0 0 0 2.766 2.152 59.627 59.627 0 0 1 9.3-9.536 1.75 1.75 0 1 0 -2.219-2.707z"/><path d="m94.83 67.63h-23.98c-15.647 0-19.308 10.2-21.731 16.95-.2.556-.393 1.1-.588 1.616a1.749 1.749 0 0 0 1.639 2.364h44.66a1.75 1.75 0 0 0 1.75-1.75v-17.43a1.75 1.75 0 0 0 -1.75-1.75zm-24.178 17.43a5.577 5.577 0 0 1 5.358-4.04 5.565 5.565 0 0 1 5.351 4.04zm22.428 0h-8.145a9.056 9.056 0 0 0 -17.857 0h-14.412c2.411-6.676 5.447-13.93 18.184-13.93h22.23z"/></svg>