<svg id="Layer_1" height="512" viewBox="0 0 128 128" width="512" xmlns="http://www.w3.org/2000/svg" data-name="Layer 1"><path d="m121.5 110.75a5.1 5.1 0 0 1 -5.095-5.095v-61.763a1.749 1.749 0 0 0 -1.75-1.75h-79.615a1.749 1.749 0 0 0 -1.75 1.75v9.168h-1.77v-27.118h6.48c10.791 0 20.091-7.222 24.271-18.85a1.748 1.748 0 0 0 -1.646-2.342h-54.125a1.749 1.749 0 0 0 -1.75 1.75c0 9.662 4.752 19.442 13.833 19.442h.437v27.118h-1.77v-2.746a1.75 1.75 0 0 0 -1.75-1.75h-9a1.75 1.75 0 0 0 -1.75 1.75v18a1.749 1.749 0 0 0 1.75 1.75h9a1.749 1.749 0 0 0 1.75-1.75v-2.754h16.04v33.09a12.114 12.114 0 0 1 -12.1 12.1 1.75 1.75 0 0 0 -1.75 1.75v9a1.75 1.75 0 0 0 1.75 1.75h100.31a1.749 1.749 0 0 0 1.75-1.75v-9a1.749 1.749 0 0 0 -1.75-1.75zm-113.188-102.5h49.717c-3.995 8.817-11.489 14.192-20.029 14.192h-19.417c-6.206 0-9.771-7.023-10.271-14.192zm14.208 17.692h5.5v27.118h-5.5zm-8.77 40.622h-5.5v-14.5h5.5zm3.5-4.5v-5.5h3.471.049 9 .048 3.472v5.5zm102.5 57.69h-96.81v-5.6a15.623 15.623 0 0 0 13.85-15.5v-53.012h76.115v60.013a8.609 8.609 0 0 0 6.845 8.416z"/><path d="m41.04 60.125a1.749 1.749 0 0 0 -1.75 1.75v16.625a1.75 1.75 0 0 0 3.5 0v-16.625a1.749 1.749 0 0 0 -1.75-1.75z"/><path d="m92.308 52.31a13.25 13.25 0 1 0 13.25 13.25 13.265 13.265 0 0 0 -13.25-13.25zm0 23a9.746 9.746 0 0 1 -1.75-19.335v4.15a1.75 1.75 0 0 0 3.5 0v-4.15a9.746 9.746 0 0 1 -1.75 19.335z"/><path d="m28.917 14.25h16.083a1.75 1.75 0 0 0 0-3.5h-16.083a1.75 1.75 0 0 0 0 3.5z"/><path d="m103.07 86.917h-21.525a1.75 1.75 0 1 0 0 3.5h21.525a1.75 1.75 0 0 0 0-3.5z"/><path d="m103.07 94.917h-21.525a1.75 1.75 0 1 0 0 3.5h21.525a1.75 1.75 0 0 0 0-3.5z"/><path d="m103.07 102.917h-21.525a1.75 1.75 0 1 0 0 3.5h21.525a1.75 1.75 0 0 0 0-3.5z"/></svg>