<svg id="Layer_1" height="512" viewBox="0 0 128 128" width="512" xmlns="http://www.w3.org/2000/svg" data-name="Layer 1"><path d="m121.5 109.75h-23.44v-7.17a29.583 29.583 0 0 0 15.315-25.893v-5.351a1.751 1.751 0 0 0 -1.75-1.75h-55.625a1.751 1.751 0 0 0 -1.75 1.75v5.351a29.583 29.583 0 0 0 15.31 25.89v7.173h-11.49a10.261 10.261 0 0 1 -10.25-10.25v-53.995h14.25v7.255a1.751 1.751 0 0 0 1.75 1.75h18.24v7.25a1.75 1.75 0 0 0 3.5 0v-7.25h18.25a1.751 1.751 0 0 0 1.75-1.75v-7.255h7.68a1.75 1.75 0 0 0 1.75-1.75v-25.255a13.766 13.766 0 0 0 -13.75-13.75h-82.74a13.765 13.765 0 0 0 -13.75 13.75v25.255a1.75 1.75 0 0 0 1.75 1.75h15.086.044a5.6 5.6 0 0 1 5.561 6.216l-.286 2.566-6.334 48.237a8.1 8.1 0 0 1 -8.071 7.226 1.751 1.751 0 0 0 -1.75 1.75v10a1.751 1.751 0 0 0 1.75 1.75h109a1.751 1.751 0 0 0 1.75-1.75v-10a1.751 1.751 0 0 0 -1.75-1.75zm-63.75-33.063v-3.6h52.125v3.6a26.063 26.063 0 1 1 -52.125 0zm15.31 27.529a29.438 29.438 0 0 0 21.5 0v5.532h-21.5zm29-53.206h-36.49v-5.5h36.49zm-93.81-32.51a10.261 10.261 0 0 1 10.25-10.25h82.74a10.261 10.261 0 0 1 10.25 10.25v23.505h-103.24zm111.5 101.25h-105.5v-6.63a11.584 11.584 0 0 0 9.8-10.172l6.334-48.234.29-2.6a9.112 9.112 0 0 0 -1.887-6.606h15.533v54a13.765 13.765 0 0 0 13.75 13.75h61.68z"/><path d="m97.475 95.43a1.739 1.739 0 0 0 1.1-.388 23.488 23.488 0 0 0 8.565-15.022 1.75 1.75 0 0 0 -3.465-.493 20.01 20.01 0 0 1 -7.3 12.79 1.75 1.75 0 0 0 1.1 3.113z"/><path d="m46.143 19.378a5.75 5.75 0 1 0 5.75 5.75 5.757 5.757 0 0 0 -5.75-5.75zm0 8a2.25 2.25 0 1 1 2.25-2.25 2.252 2.252 0 0 1 -2.25 2.25z"/><path d="m26.428 19.378a5.75 5.75 0 1 0 5.75 5.75 5.757 5.757 0 0 0 -5.75-5.75zm0 8a2.25 2.25 0 1 1 2.25-2.25 2.253 2.253 0 0 1 -2.25 2.25z"/><path d="m103.808 23.378h-39.991a1.75 1.75 0 1 0 0 3.5h39.991a1.75 1.75 0 0 0 0-3.5z"/></svg>