<svg id="Layer_1" height="512" viewBox="0 0 128 128" width="512" xmlns="http://www.w3.org/2000/svg" data-name="Layer 1"><path d="m64 13.75a50.25 50.25 0 1 0 50.25 50.25 50.307 50.307 0 0 0 -50.25-50.25zm0 97a46.75 46.75 0 1 1 46.75-46.75 46.8 46.8 0 0 1 -46.75 46.75z"/><path d="m64 4.75a59.25 59.25 0 1 0 59.25 59.25 59.318 59.318 0 0 0 -59.25-59.25zm0 115a55.75 55.75 0 1 1 55.75-55.75 55.813 55.813 0 0 1 -55.75 55.75z"/><path d="m55.5 34.759a1.75 1.75 0 0 0 -1.75 1.75v12.813h-5.64v-12.812a1.75 1.75 0 0 0 -3.5 0v12.812h-5.631v-12.813a1.75 1.75 0 0 0 -3.5 0v14.835a10.9 10.9 0 0 0 6.541 9.975l-.809 27.32a5.156 5.156 0 1 0 10.307 0l-.808-27.32a10.9 10.9 0 0 0 6.54-9.975v-14.835a1.75 1.75 0 0 0 -1.75-1.75zm-7.48 53.984a1.644 1.644 0 0 1 -.467 1.2 1.7 1.7 0 0 1 -2.377 0 1.646 1.646 0 0 1 -.467-1.2l.791-26.557c.288.023.576.044.87.044s.581-.021.869-.044zm-1.655-30.013a7.4 7.4 0 0 1 -7.237-5.908h14.472a7.4 7.4 0 0 1 -7.235 5.908z"/><path d="m81.065 34.052c-6.316 0-11.455 6.321-11.455 14.089 0 5.744 2.869 10.9 7.115 13.033l-.813 27.466a5.156 5.156 0 1 0 10.307 0l-.813-27.467c4.246-2.134 7.115-7.287 7.115-13.032 0-7.768-5.139-14.089-11.456-14.089zm1.983 24.327a1.75 1.75 0 0 0 -1.175 1.705l.848 28.659a1.641 1.641 0 0 1 -.468 1.2 1.693 1.693 0 0 1 -2.376 0 1.644 1.644 0 0 1 -.467-1.2l.848-28.658a1.749 1.749 0 0 0 -1.175-1.7c-3.517-1.22-5.973-5.43-5.973-10.239 0-5.839 3.569-10.589 7.955-10.589s7.956 4.75 7.956 10.589c0 4.804-2.456 9.014-5.973 10.233z"/></svg>