<svg id="Layer_1" height="512" viewBox="0 0 128 128" width="512" xmlns="http://www.w3.org/2000/svg" data-name="Layer 1"><path d="m121.5 53.4h-7.1v-19.3h3.433a1.75 1.75 0 0 0 1.75-1.75v-9a1.749 1.749 0 0 0 -1.75-1.75h-36.916a9.764 9.764 0 0 0 -9.589-8h-14.656a9.764 9.764 0 0 0 -9.589 8h-36.916a1.749 1.749 0 0 0 -1.75 1.75v9a1.75 1.75 0 0 0 1.75 1.75h3.433v19.3h-7.1a1.75 1.75 0 0 0 -1.75 1.75v19.5a1.749 1.749 0 0 0 1.75 1.75h7.1v16.25a21.773 21.773 0 0 0 21.75 21.75h57.3a21.773 21.773 0 0 0 21.75-21.75v-16.25h7.1a1.749 1.749 0 0 0 1.75-1.75v-19.5a1.75 1.75 0 0 0 -1.75-1.75zm-64.828-36.3h14.656a6.265 6.265 0 0 1 6.006 4.5h-26.668a6.265 6.265 0 0 1 6.006-4.5zm-44.755 8h104.166v5.5h-104.166zm-3.667 47.8v-16h5.35v16zm102.65 19.75a18.269 18.269 0 0 1 -18.25 18.25h-57.3a18.269 18.269 0 0 1 -18.25-18.25v-58.55h93.8zm8.85-19.75h-5.35v-16h5.35z"/><path d="m106.654 69.6a1.749 1.749 0 0 0 -1.75 1.75v6.65a1.75 1.75 0 0 0 3.5 0v-6.655a1.749 1.749 0 0 0 -1.75-1.745z"/><path d="m106.654 42.375a1.749 1.749 0 0 0 -1.75 1.75v18.75a1.75 1.75 0 0 0 3.5 0v-18.75a1.749 1.749 0 0 0 -1.75-1.75z"/></svg>