<svg id="Layer_1" height="512" viewBox="0 0 128 128" width="512" xmlns="http://www.w3.org/2000/svg" data-name="Layer 1"><path d="m60.729 21.106a1.747 1.747 0 0 0 2.427-.485 27.714 27.714 0 0 1 46.159 0 1.75 1.75 0 0 0 2.91-1.943 31.212 31.212 0 0 0 -51.981 0 1.749 1.749 0 0 0 .485 2.428z"/><path d="m105.781 24.73a1.75 1.75 0 0 0 1.457-2.716 24.341 24.341 0 0 0 -2.891-3.581 25.2 25.2 0 0 0 -36.232 0 25.7 25.7 0 0 0 -2.887 3.562 1.75 1.75 0 1 0 2.9 1.953 22.3 22.3 0 0 1 2.495-3.078 21.7 21.7 0 0 1 31.213.008 20.876 20.876 0 0 1 2.481 3.071 1.746 1.746 0 0 0 1.464.781z"/><path d="m99.08 21.68a19.069 19.069 0 0 0 -5.986-3.664 19.307 19.307 0 0 0 -13.717 0 19.328 19.328 0 0 0 -9.163 7.313 1.75 1.75 0 1 0 2.911 1.943 15.721 15.721 0 0 1 23.615-2.99 16.063 16.063 0 0 1 2.6 2.994 1.751 1.751 0 0 0 2.906-1.953 19.672 19.672 0 0 0 -3.166-3.643z"/><path d="m115.5 79.942h-23.585l-1.669-37.908a7.25 7.25 0 1 0 -8.032 0l-1.659 37.908h-68.055a7.759 7.759 0 0 0 -7.75 7.75v21.808a7.759 7.759 0 0 0 7.75 7.75h9.752l1.443 4.758a1.75 1.75 0 0 0 1.675 1.242h8.82a1.75 1.75 0 0 0 1.75-1.75v-4.25h56.12v4.25a1.75 1.75 0 0 0 1.75 1.75h8.82a1.75 1.75 0 0 0 1.675-1.242l1.443-4.758h9.752a7.759 7.759 0 0 0 7.75-7.75v-21.808a7.759 7.759 0 0 0 -7.75-7.75zm-29.266-47.692a3.749 3.749 0 0 1 1.477 7.2l-.025.012a3.75 3.75 0 1 1 -1.452-7.207zm-.568 10.971c.188.015.376.029.568.029s.375-.014.561-.028l1.616 36.72h-4.353zm-53.226 76.529h-5.772l-.758-2.5h6.53zm68.892 0h-5.772v-2.5h6.53zm18.418-10.25a4.255 4.255 0 0 1 -4.25 4.25h-103a4.255 4.255 0 0 1 -4.25-4.25v-21.808a4.255 4.255 0 0 1 4.25-4.25h103a4.255 4.255 0 0 1 4.25 4.25z"/><path d="m49.145 91.346a7.25 7.25 0 1 0 7.255 7.254 7.258 7.258 0 0 0 -7.255-7.254zm0 11a3.75 3.75 0 1 1 3.755-3.746 3.755 3.755 0 0 1 -3.755 3.746z"/><path d="m29.692 91.346a7.25 7.25 0 1 0 7.25 7.25 7.258 7.258 0 0 0 -7.25-7.25zm0 11a3.75 3.75 0 1 1 3.75-3.75 3.755 3.755 0 0 1 -3.75 3.75z"/><path d="m103.808 96.846h-36.141a1.75 1.75 0 0 0 0 3.5h36.141a1.75 1.75 0 0 0 0-3.5z"/></svg>