<svg id="Layer_1" height="512" viewBox="0 0 128 128" width="512" xmlns="http://www.w3.org/2000/svg" data-name="Layer 1"><path d="m121.35 37.39h-9.736l2.7-21.829c0-.032 0-.063 0-.1s.012-.079.012-.12-.007-.1-.007-.148v-.013a10.6 10.6 0 0 0 -10.588-10.43h-79.462a10.6 10.6 0 0 0 -10.588 10.435v.015c0 .05-.007.1-.007.148s.009.08.012.12 0 .063 0 .1l2.7 21.829h-9.886a1.75 1.75 0 0 0 -1.75 1.75v6a1.75 1.75 0 0 0 1.75 1.743h11.061l1.769 14.3h-9.33a1.75 1.75 0 0 0 -1.75 1.75v6a1.75 1.75 0 0 0 1.75 1.75h10.505l1.937 15.664v35.146a1.751 1.751 0 0 0 1.75 1.75h79.462a1.75 1.75 0 0 0 1.75-1.75v-34.551a1.71 1.71 0 0 0 .14-.484l1.956-15.775h10.35a1.751 1.751 0 0 0 1.75-1.75v-6a1.751 1.751 0 0 0 -1.75-1.75h-9.18l1.769-14.3h10.911a1.751 1.751 0 0 0 1.75-1.75v-6a1.751 1.751 0 0 0 -1.75-1.75zm-19.089 47.11h-76.522l-2.45-19.81h81.422zm2.883-23.311h-82.288l-2.51-20.3h87.308zm-80.875-52.939h79.462a7.108 7.108 0 0 1 6.877 5.346h-93.216a7.108 7.108 0 0 1 6.877-5.346zm-6.869 8.85h93.2l-2.51 20.294h-4.83a.175.175 0 0 0 -.024 0h-78.636-.024-4.664zm-9.15 26.29v-2.5h8.569l.309 2.5zm3.5 23.8v-2.5h8.013l.309 2.5zm90.15 52.56h-75.958v-31.75h75.958zm14.2-55.06v2.5h-8.172l.309-2.5zm-5.228-21.3.308-2.5h8.42v2.5z"/><path d="m94.654 114.25a1.75 1.75 0 0 0 1.75-1.75v-11.25a1.75 1.75 0 0 0 -3.5 0v11.25a1.75 1.75 0 0 0 1.75 1.75z"/><path d="m63.923 117.125a13.25 13.25 0 1 0 -13.25-13.25 13.265 13.265 0 0 0 13.25 13.25zm0-23a9.75 9.75 0 1 1 -9.75 9.75 9.761 9.761 0 0 1 9.75-9.75z"/></svg>