<svg id="Layer_1" height="512" viewBox="0 0 128 128" width="512" xmlns="http://www.w3.org/2000/svg" data-name="Layer 1"><path d="m56.02 30.686a1.75 1.75 0 0 0 -2.475-2.475l-1.4 1.4a13.258 13.258 0 0 0 -16.081 0l-1.4-1.4a1.75 1.75 0 0 0 -2.475 2.475l1.4 1.4a13.211 13.211 0 0 0 0 16.082l-1.4 1.4a1.75 1.75 0 0 0 2.475 2.475l1.4-1.4a13.209 13.209 0 0 0 16.081 0l1.4 1.4a1.75 1.75 0 0 0 2.475-2.475l-1.4-1.4a13.259 13.259 0 0 0 0-16.08zm-3.9 14.979-1.2-1.2a1.75 1.75 0 0 0 -2.474 2.475l1.2 1.2a9.764 9.764 0 0 1 -11.079 0l1.2-1.2a1.75 1.75 0 0 0 -2.475-2.475l-1.2 1.2a9.751 9.751 0 0 1 0-11.084l1.2 1.2a1.75 1.75 0 0 0 2.475-2.475l-1.2-1.2a9.725 9.725 0 0 1 11.079 0l-1.2 1.2a1.75 1.75 0 0 0 2.474 2.475l1.2-1.2a9.766 9.766 0 0 1 0 11.084z"/><path d="m95.808 30.686a1.75 1.75 0 1 0 -2.475-2.475l-1.4 1.4a13.261 13.261 0 0 0 -16.081 0l-1.4-1.4a1.75 1.75 0 0 0 -2.475 2.475l1.4 1.4a13.207 13.207 0 0 0 0 16.082l-1.4 1.4a1.75 1.75 0 0 0 2.475 2.475l1.4-1.4a13.209 13.209 0 0 0 16.081 0l1.4 1.4a1.75 1.75 0 1 0 2.475-2.475l-1.4-1.4a13.259 13.259 0 0 0 0-16.082zm-3.9 14.979-1.2-1.2a1.75 1.75 0 1 0 -2.475 2.475l1.2 1.2a9.767 9.767 0 0 1 -11.08 0l1.2-1.2a1.75 1.75 0 1 0 -2.475-2.475l-1.2 1.2a9.746 9.746 0 0 1 0-11.084l1.2 1.2a1.75 1.75 0 1 0 2.475-2.475l-1.2-1.2a9.733 9.733 0 0 1 11.08 0l-1.2 1.2a1.75 1.75 0 0 0 2.475 2.475l1.2-1.2a9.769 9.769 0 0 1 .001 11.084z"/><path d="m54.621 66.335 1.4-1.4a1.75 1.75 0 0 0 -2.475-2.475l-1.4 1.4a13.258 13.258 0 0 0 -16.081 0l-1.4-1.4a1.75 1.75 0 0 0 -2.475 2.475l1.4 1.4a13.211 13.211 0 0 0 0 16.082l-1.4 1.4a1.75 1.75 0 0 0 2.475 2.475l1.4-1.4a13.209 13.209 0 0 0 16.081 0l1.4 1.4a1.75 1.75 0 1 0 2.475-2.475l-1.4-1.4a13.259 13.259 0 0 0 0-16.082zm-16.055 16.054 1.2-1.2a1.75 1.75 0 0 0 -2.475-2.475l-1.2 1.2a9.751 9.751 0 0 1 0-11.084l1.2 1.2a1.75 1.75 0 0 0 2.475-2.475l-1.2-1.2a9.725 9.725 0 0 1 11.079 0l-1.2 1.2a1.75 1.75 0 0 0 2.474 2.475l1.2-1.2a9.766 9.766 0 0 1 0 11.08l-1.2-1.2a1.75 1.75 0 0 0 -2.474 2.475l1.2 1.2a9.764 9.764 0 0 1 -11.079.004z"/><path d="m94.409 66.334 1.4-1.4a1.75 1.75 0 1 0 -2.475-2.475l-1.4 1.4a13.261 13.261 0 0 0 -16.081 0l-1.4-1.4a1.75 1.75 0 0 0 -2.475 2.475l1.4 1.4a13.207 13.207 0 0 0 0 16.082l-1.4 1.4a1.75 1.75 0 0 0 2.475 2.475l1.4-1.4a13.209 13.209 0 0 0 16.081 0l1.4 1.4a1.75 1.75 0 1 0 2.475-2.475l-1.4-1.4a13.259 13.259 0 0 0 0-16.082zm-16.055 16.055 1.2-1.2a1.75 1.75 0 1 0 -2.475-2.475l-1.2 1.2a9.746 9.746 0 0 1 0-11.084l1.2 1.2a1.75 1.75 0 1 0 2.475-2.475l-1.2-1.2a9.733 9.733 0 0 1 11.08 0l-1.2 1.2a1.75 1.75 0 0 0 2.475 2.475l1.2-1.2a9.769 9.769 0 0 1 0 11.08l-1.2-1.2a1.75 1.75 0 0 0 -2.475 2.475l1.2 1.2a9.767 9.767 0 0 1 -11.08.004z"/><path d="m54.143 104.5a5.75 5.75 0 1 0 5.75 5.75 5.757 5.757 0 0 0 -5.75-5.75zm0 8a2.25 2.25 0 1 1 2.25-2.25 2.252 2.252 0 0 1 -2.25 2.25z"/><path d="m34.428 104.5a5.75 5.75 0 1 0 5.75 5.75 5.757 5.757 0 0 0 -5.75-5.75zm0 8a2.25 2.25 0 1 1 2.25-2.25 2.252 2.252 0 0 1 -2.25 2.25z"/><path d="m93.572 104.5a5.75 5.75 0 1 0 5.75 5.75 5.757 5.757 0 0 0 -5.75-5.75zm0 8a2.25 2.25 0 1 1 2.25-2.25 2.253 2.253 0 0 1 -2.25 2.25z"/><path d="m73.857 104.5a5.75 5.75 0 1 0 5.75 5.75 5.757 5.757 0 0 0 -5.75-5.75zm0 8a2.25 2.25 0 1 1 2.25-2.25 2.253 2.253 0 0 1 -2.25 2.25z"/><path d="m121.5 4.75h-115a1.751 1.751 0 0 0 -1.75 1.75v115a1.751 1.751 0 0 0 1.75 1.75h115a1.75 1.75 0 0 0 1.75-1.75v-115a1.75 1.75 0 0 0 -1.75-1.75zm-1.75 115h-111.5v-111.5h111.5z"/><path d="m15.5 100.75h97a1.75 1.75 0 0 0 1.75-1.75v-83.5a1.75 1.75 0 0 0 -1.75-1.75h-97a1.751 1.751 0 0 0 -1.75 1.75v83.5a1.751 1.751 0 0 0 1.75 1.75zm1.75-83.5h93.5v80h-93.5z"/></svg>