<svg id="Layer_1" height="512" viewBox="0 0 128 128" width="512" xmlns="http://www.w3.org/2000/svg" data-name="Layer 1"><path d="m77.545 14.75h-4.625a1.75 1.75 0 0 0 0 3.5h4.625a1.75 1.75 0 0 0 0-3.5z"/><path d="m65.5 14.75h-15.045a1.75 1.75 0 0 0 0 3.5h15.045a1.75 1.75 0 0 0 0-3.5z"/><path d="m21.346 57.875a1.75 1.75 0 0 0 -1.75 1.75v22.067a1.75 1.75 0 0 0 3.5 0v-22.067a1.75 1.75 0 0 0 -1.75-1.75z"/><path d="m121.5 107.75h-7.1v-53.87a13.765 13.765 0 0 0 -13.75-13.75h-6.15v-18.63a6.734 6.734 0 0 0 -2.22-5 6.747 6.747 0 0 0 -4.53-11.75h-47.5a6.747 6.747 0 0 0 -4.53 11.75 6.734 6.734 0 0 0 -2.22 5v18.63h-6.15a13.766 13.766 0 0 0 -13.75 13.75v53.87h-7.1a1.75 1.75 0 0 0 -1.75 1.75v12a1.75 1.75 0 0 0 1.75 1.75h115a1.749 1.749 0 0 0 1.75-1.75v-12a1.749 1.749 0 0 0 -1.75-1.75zm-84.5-86.25a3.254 3.254 0 0 1 3.25-3.25 1.75 1.75 0 0 0 0-3.5 3.249 3.249 0 0 1 -2.292-5.55 3.215 3.215 0 0 1 2.292-.95h47.5a3.25 3.25 0 0 1 0 6.5 1.75 1.75 0 0 0 0 3.5 3.254 3.254 0 0 1 3.25 3.25v18.63h-54zm-19.9 32.38a10.261 10.261 0 0 1 10.25-10.25h73.3a10.261 10.261 0 0 1 10.25 10.25v53.87h-93.8zm102.65 65.87h-111.5v-8.5h111.5z"/><path d="m101.831 68h-5.751v-6.88a1.75 1.75 0 1 0 -3.5 0v6.88h-5.749a1.749 1.749 0 0 0 -1.75 1.75v6a1.749 1.749 0 0 0 1.75 1.75h5.749v11.71a1.75 1.75 0 0 0 3.5 0v-11.71h5.751a1.749 1.749 0 0 0 1.75-1.75v-6a1.749 1.749 0 0 0 -1.75-1.75zm-1.75 6h-11.5v-2.5h11.5z"/><path d="m55.976 87.458a7.25 7.25 0 1 0 7.25 7.25 7.258 7.258 0 0 0 -7.25-7.25zm0 11a3.75 3.75 0 1 1 3.75-3.75 3.755 3.755 0 0 1 -3.75 3.75z"/><path d="m36.524 87.458a7.25 7.25 0 1 0 7.25 7.25 7.258 7.258 0 0 0 -7.25-7.25zm0 11a3.75 3.75 0 1 1 3.75-3.75 3.755 3.755 0 0 1 -3.75 3.75z"/></svg>