<svg id="Layer_1" height="512" viewBox="0 0 128 128" width="512" xmlns="http://www.w3.org/2000/svg" data-name="Layer 1"><path d="m21.346 66.75a1.75 1.75 0 0 0 -1.746 1.75v24.167a1.75 1.75 0 0 0 3.5 0v-24.167a1.749 1.749 0 0 0 -1.754-1.75z"/><path d="m43.242 34.021a27.087 27.087 0 0 0 12.154 0c6.073-1.43 10-4.929 10-8.914s-3.924-7.47-9.991-8.9a27.25 27.25 0 0 0 -12.154 0c-6.073 1.431-10 4.925-10 8.9s3.924 7.485 9.991 8.914zm.815-14.409a23.642 23.642 0 0 1 10.537 0c4.3 1.013 7.3 3.273 7.3 5.5s-3 4.5-7.3 5.509a23.72 23.72 0 0 1 -10.537 0c-4.3-1.012-7.3-3.277-7.3-5.508s2.996-4.487 7.3-5.501z"/><path d="m114.035 94.521-4.206-5.406 4.206-5.406a1.747 1.747 0 0 0 0-2.148l-4.206-5.408 4.206-5.408a1.749 1.749 0 0 0 0-2.149l-4.206-5.405 4.206-5.41a1.75 1.75 0 0 0 0-2.148l-4.208-5.415 4.208-5.415a1.75 1.75 0 0 0 -1.382-2.824h-27.603v-16.785c0-.027 0-.053 0-.08.003-11.414-15.691-20.364-35.725-20.364s-35.725 8.95-35.725 20.364v.091 77.685c0 10.154 12.726 18.622 30.269 20.134 1.853.15 3.687.226 5.451.226h63.334a1.749 1.749 0 0 0 1.38-2.825l-4.205-5.4 4.206-5.4a1.75 1.75 0 0 0 0-2.15l-4.206-5.4 4.206-5.4a1.75 1.75 0 0 0 0-2.154zm-32.485-52.542h-11.95a29.2 29.2 0 0 0 11.95-7.925zm-32.225-33.729c17.457 0 32.207 7.712 32.227 16.845v.025.062c-.073 9.112-14.8 16.8-32.225 16.8s-32.143-7.682-32.227-16.79v-.072c0-.009 0-.018 0-.028.021-9.132 14.769-16.842 32.225-16.842zm56.905 92.75a1.75 1.75 0 0 0 0 2.15l4.206 5.4-4.206 5.4a1.75 1.75 0 0 0 0 2.151l2.841 3.647h-18.471v-1.748a1.75 1.75 0 0 0 -3.5 0v1.75h-37.78c-1.67 0-3.409-.072-5.16-.213-15.427-1.331-27.06-8.487-27.06-16.647v-68.836c5.713 6.819 17.851 11.425 32.225 11.425h37.775v1.75a1.75 1.75 0 0 0 3.5 0v-1.75h18.482l-2.849 3.665a1.753 1.753 0 0 0 0 2.148l4.208 5.415-4.207 5.41a1.75 1.75 0 0 0 0 2.15l4.207 5.4-4.207 5.408a1.749 1.749 0 0 0 0 2.149l4.207 5.407-4.207 5.406a1.747 1.747 0 0 0 0 2.148l4.207 5.407z"/><path d="m88.846 53.805a1.75 1.75 0 0 0 -1.75 1.75v7.285a1.75 1.75 0 0 0 3.5 0v-7.285a1.749 1.749 0 0 0 -1.75-1.75z"/><path d="m88.846 85.027a1.751 1.751 0 0 0 -1.75 1.75v7.286a1.75 1.75 0 0 0 3.5 0v-7.286a1.75 1.75 0 0 0 -1.75-1.75z"/><path d="m88.846 69.416a1.75 1.75 0 0 0 -1.75 1.75v7.285a1.75 1.75 0 0 0 3.5 0v-7.285a1.749 1.749 0 0 0 -1.75-1.75z"/><path d="m88.846 100.639a1.75 1.75 0 0 0 -1.75 1.75v7.285a1.75 1.75 0 0 0 3.5 0v-7.285a1.749 1.749 0 0 0 -1.75-1.75z"/></svg>