<svg id="Layer_1" height="512" viewBox="0 0 128 128" width="512" xmlns="http://www.w3.org/2000/svg" data-name="Layer 1"><path d="m97.81 10.75h-22.06v-4.25a1.749 1.749 0 0 0 -1.75-1.75h-20a1.749 1.749 0 0 0 -1.75 1.75v4.25h-22.06a7.759 7.759 0 0 0 -7.75 7.75v79.311a7.759 7.759 0 0 0 7.75 7.75h12.16v6.439a1.749 1.749 0 0 0 1.75 1.75h1.25v7.75a1.75 1.75 0 0 0 3.5 0v-7.75h1.25a1.75 1.75 0 0 0 1.75-1.75v-6.439h24.3v6.439a1.75 1.75 0 0 0 1.75 1.75h1.25v7.75a1.75 1.75 0 0 0 3.5 0v-7.75h1.25a1.749 1.749 0 0 0 1.75-1.75v-6.439h12.16a7.759 7.759 0 0 0 7.75-7.75v-79.311a7.759 7.759 0 0 0 -7.75-7.75zm-42.06-2.5h16.5v2.5h-16.5zm-29.81 10.25a4.255 4.255 0 0 1 4.25-4.25h67.62a4.255 4.255 0 0 1 4.25 4.25v5.42h-76.12zm56.214 83.558h-36.308v-39.5h36.308zm-33.8 8.192h-2.5v-4.689h2.5zm33.8 0h-2.5v-4.689h2.5zm19.91-12.439a4.255 4.255 0 0 1 -4.25 4.25h-12.16v-41.253a1.749 1.749 0 0 0 -1.75-1.75h-39.804a1.749 1.749 0 0 0 -1.75 1.75v41.253h-12.16a4.255 4.255 0 0 1 -4.25-4.25v-70.391h76.12z"/><path d="m97.808 61a1.75 1.75 0 0 0 1.75-1.75v-20.583a1.75 1.75 0 0 0 -3.5 0v20.583a1.749 1.749 0 0 0 1.75 1.75z"/><path d="m64 98.558a7.25 7.25 0 1 0 -7.25-7.25 7.258 7.258 0 0 0 7.25 7.25zm0-11a3.75 3.75 0 1 1 -3.75 3.75 3.755 3.755 0 0 1 3.75-3.75z"/><path d="m64 80.558a7.25 7.25 0 1 0 -7.25-7.25 7.258 7.258 0 0 0 7.25 7.25zm0-11a3.75 3.75 0 1 1 -3.75 3.75 3.755 3.755 0 0 1 3.75-3.75z"/></svg>