<?xml version="1.0"?>
<svg xmlns="http://www.w3.org/2000/svg" id="Layer_1" data-name="Layer 1" viewBox="0 0 128 128" width="512" height="512"><title>CLOSET</title><path d="M121.5,4.75H6.5A1.75,1.75,0,0,0,4.75,6.5v115a1.75,1.75,0,0,0,1.75,1.75h115a1.749,1.749,0,0,0,1.75-1.75V6.5A1.749,1.749,0,0,0,121.5,4.75ZM52.75,65.1A1.75,1.75,0,0,0,51,66.846V68.1H42.833v-1.25a1.75,1.75,0,0,0-3.5,0V68.1H31.167v-1.25a1.75,1.75,0,0,0-3.5,0V68.1H19.5v-1.25a1.75,1.75,0,0,0-3.5,0V68.1H8.25V25.942H16v1.25a1.75,1.75,0,0,0,3.5,0v-1.25h8.167v1.25a1.75,1.75,0,0,0,3.5,0v-1.25h8.166v1.25a1.75,1.75,0,1,0,3.5,0v-1.25H51v1.25a1.75,1.75,0,1,0,3.5,0v-1.25h7.75V68.1H54.5v-1.25A1.75,1.75,0,0,0,52.75,65.1ZM62.25,8.25V22.442H54.5v-1.25a1.75,1.75,0,0,0-3.5,0v1.25H42.833v-1.25a1.75,1.75,0,0,0-3.5,0v1.25H31.167v-1.25a1.75,1.75,0,0,0-3.5,0v1.25H19.5v-1.25a1.75,1.75,0,0,0-3.5,0v1.25H8.25V8.25ZM8.25,71.6H16v1.25a1.75,1.75,0,0,0,3.5,0V71.6h8.167v1.25a1.75,1.75,0,0,0,3.5,0V71.6h8.166v1.25a1.75,1.75,0,0,0,3.5,0V71.6H51v1.25a1.75,1.75,0,0,0,3.5,0V71.6h7.75V119.75h-54Zm111.5,48.154h-54V8.25h54Z"/><path d="M73,60.583h39.5a1.749,1.749,0,0,0,1.75-1.75V15.5a1.749,1.749,0,0,0-1.75-1.75H73a1.749,1.749,0,0,0-1.75,1.75V58.833A1.749,1.749,0,0,0,73,60.583ZM74.75,17.25h36V57.083h-36Z"/><path d="M73,114.25h39.5a1.749,1.749,0,0,0,1.75-1.75V91.667a1.749,1.749,0,0,0-1.75-1.75H73a1.749,1.749,0,0,0-1.75,1.75V112.5A1.749,1.749,0,0,0,73,114.25Zm1.75-20.833h36V110.75h-36Z"/><path d="M73,87.417h39.5a1.749,1.749,0,0,0,1.75-1.75V64.833a1.749,1.749,0,0,0-1.75-1.75H73a1.749,1.749,0,0,0-1.75,1.75V85.667A1.749,1.749,0,0,0,73,87.417Zm1.75-20.834h36V83.917h-36Z"/><path d="M97.25,19.75h-9a1.75,1.75,0,0,0,0,3.5h9a1.75,1.75,0,0,0,0-3.5Z"/><path d="M97.25,69.083h-9a1.75,1.75,0,0,0,0,3.5h9a1.75,1.75,0,0,0,0-3.5Z"/><path d="M97.25,95.917h-9a1.75,1.75,0,0,0,0,3.5h9a1.75,1.75,0,0,0,0-3.5Z"/></svg>
