<svg id="Layer_1" height="512" viewBox="0 0 128 128" width="512" xmlns="http://www.w3.org/2000/svg" data-name="Layer 1"><path d="m112.655 4.75h-97.31a1.75 1.75 0 0 0 -1.745 1.75v115a1.75 1.75 0 0 0 1.75 1.75h97.31a1.75 1.75 0 0 0 1.75-1.75v-115a1.75 1.75 0 0 0 -1.755-1.75zm-1.75 3.5v71.692h-93.805v-71.692zm0 111.5h-93.805v-36.308h93.81z"/><path d="m24.345 112.68h30a1.75 1.75 0 0 0 1.75-1.75v-18.667a1.749 1.749 0 0 0 -1.75-1.75h-30a1.75 1.75 0 0 0 -1.75 1.75v18.667a1.751 1.751 0 0 0 1.75 1.75zm1.755-18.667h26.5v15.167h-26.5z"/><path d="m98.155 108.846a7.25 7.25 0 1 0 -7.25-7.25 7.258 7.258 0 0 0 7.25 7.25zm0-11a3.75 3.75 0 1 1 -3.75 3.75 3.754 3.754 0 0 1 3.75-3.75z"/><path d="m78.7 108.846a7.25 7.25 0 1 0 -7.25-7.25 7.258 7.258 0 0 0 7.25 7.25zm0-11a3.75 3.75 0 1 1 -3.75 3.75 3.754 3.754 0 0 1 3.75-3.75z"/></svg>