<?xml version="1.0"?>
<svg xmlns="http://www.w3.org/2000/svg" id="Layer_1" data-name="Layer 1" viewBox="0 0 128 128" width="512" height="512"><title>DRILL</title><path d="M121.5,40.22h-6.37V38.97a1.75,1.75,0,0,0-1.75-1.75h-7.82V35.47a1.751,1.751,0,0,0-1.75-1.75H89.646A19.538,19.538,0,0,0,71.971,22.442H18.5A13.766,13.766,0,0,0,4.75,36.192V47.75A13.765,13.765,0,0,0,18.5,61.5h3.94V93.75H18.75A1.751,1.751,0,0,0,17,95.5v8.308a1.751,1.751,0,0,0,1.75,1.75h26a1.751,1.751,0,0,0,1.75-1.75V95.5a1.751,1.751,0,0,0-1.75-1.75H39.994l2.291-17.5H50.07a1.75,1.75,0,0,0,1.735-1.523L53.536,61.5H71.971A19.537,19.537,0,0,0,89.647,50.22H103.81a1.75,1.75,0,0,0,1.75-1.75V46.72h7.82a1.749,1.749,0,0,0,1.75-1.75V43.72h6.37a1.75,1.75,0,0,0,0-3.5ZM47.375,25.942v7.779H25.942V25.942ZM8.25,47.75V36.192A10.262,10.262,0,0,1,18.5,25.942h3.942v9.529a1.75,1.75,0,0,0,1.75,1.75H49.125a1.75,1.75,0,0,0,1.75-1.75V25.942H66.583V58H18.5A10.261,10.261,0,0,1,8.25,47.75ZM43,102.058H20.5V97.25H43ZM25.94,93.75V61.5H40.686L36.464,93.75Zm22.594-21H42.743L44.216,61.5h5.79ZM71.971,58H70.083V55.176h4.25a1.75,1.75,0,0,0,0-3.5h-4.25V47.54h4.25a1.75,1.75,0,0,0,0-3.5h-4.25V39.9h4.25a1.75,1.75,0,0,0,0-3.5h-4.25V32.266h4.25a1.75,1.75,0,0,0,0-3.5h-4.25V25.942h1.888a16.029,16.029,0,0,1,0,32.058ZM102.06,46.72H90.892a18.844,18.844,0,0,0,0-9.5H102.06Zm9.57-3.5h-6.07v-2.5h6.07Z"/><path d="M41.25,53.75A1.751,1.751,0,0,0,39.5,52h-21a1.75,1.75,0,0,0,0,3.5h21A1.751,1.751,0,0,0,41.25,53.75Z"/></svg>
