<svg id="Layer_1" height="512" viewBox="0 0 128 128" width="512" xmlns="http://www.w3.org/2000/svg" data-name="Layer 1"><path d="m82.336 29a5.639 5.639 0 0 1 -2.755-2.127 4.1 4.1 0 0 1 -.627-3.349 15.2 15.2 0 0 0 .387-3.428 15.341 15.341 0 1 0 -30.682 0 15.185 15.185 0 0 0 .387 3.427 4.112 4.112 0 0 1 -.643 3.371 5.6 5.6 0 0 1 -2.733 2.1 15.344 15.344 0 0 0 -.534 29c.121.626.24 1.249.366 1.883a66.191 66.191 0 0 1 1.668 12.673 40.958 40.958 0 0 1 -1.743 11.028 33.767 33.767 0 0 0 -1.477 8.732v10.9a20.05 20.05 0 0 0 40.1 0v-10.9a33.767 33.767 0 0 0 -1.477-8.732 40.958 40.958 0 0 1 -1.743-11.028 66.191 66.191 0 0 1 1.67-12.674c.126-.634.245-1.257.366-1.884a15.343 15.343 0 0 0 -.528-29zm-3.149 55.463a30.686 30.686 0 0 1 1.363 7.847v6.1h-33.1v-6.1a30.686 30.686 0 0 1 1.363-7.847 44.424 44.424 0 0 0 1.857-11.913 68.893 68.893 0 0 0 -1.734-13.35c-.024-.12-.046-.238-.07-.358a15.347 15.347 0 0 0 9.643-2.242 8.981 8.981 0 0 1 4.77-1.472h1.442a8.976 8.976 0 0 1 4.768 1.472 15.325 15.325 0 0 0 8.131 2.321c.5 0 1.008-.032 1.513-.081-.023.119-.045.235-.069.354a68.893 68.893 0 0 0 -1.734 13.356 44.424 44.424 0 0 0 1.857 11.913zm-15.187 35.287a16.564 16.564 0 0 1 -16.55-16.54v-1.3h33.1v1.3a16.564 16.564 0 0 1 -16.55 16.54zm25.265-74.187a11.855 11.855 0 0 1 -9.656 9.7 11.736 11.736 0 0 1 -8.266-1.626 12.43 12.43 0 0 0 -6.622-2h-1.442a12.427 12.427 0 0 0 -6.624 2 11.838 11.838 0 1 1 -9.891-21.319 9.088 9.088 0 0 0 4.477-3.38 7.6 7.6 0 0 0 1.217-6.2 11.714 11.714 0 0 1 -.3-2.646 11.841 11.841 0 1 1 23.682 0 11.729 11.729 0 0 1 -.3 2.647 7.59 7.59 0 0 0 1.2 6.178 9.12 9.12 0 0 0 4.5 3.4 11.844 11.844 0 0 1 8.025 13.246z"/><path d="m77.591 35.332a8.25 8.25 0 1 0 8.249 8.25 8.259 8.259 0 0 0 -8.249-8.25zm0 13a4.75 4.75 0 1 1 4.749-4.75 4.756 4.756 0 0 1 -4.749 4.75z"/><path d="m50.409 35.332a8.25 8.25 0 1 0 8.25 8.25 8.259 8.259 0 0 0 -8.25-8.25zm0 13a4.75 4.75 0 1 1 4.75-4.75 4.756 4.756 0 0 1 -4.75 4.75z"/><path d="m72.25 20.091a8.25 8.25 0 1 0 -8.25 8.25 8.259 8.259 0 0 0 8.25-8.25zm-8.25 4.75a4.75 4.75 0 1 1 4.75-4.75 4.756 4.756 0 0 1 -4.75 4.75z"/><path d="m68.5 66.75h-9a1.749 1.749 0 0 0 -1.75 1.75v19.839a1.749 1.749 0 0 0 1.75 1.75h9a1.749 1.749 0 0 0 1.75-1.75v-19.839a1.749 1.749 0 0 0 -1.75-1.75zm-1.75 19.839h-5.5v-16.339h5.5z"/></svg>