<?xml version="1.0"?>
<svg xmlns="http://www.w3.org/2000/svg" id="Layer_1" data-name="Layer 1" viewBox="0 0 128 128" width="512" height="512"><title>FAN</title><path d="M85.356,40.752a1.75,1.75,0,0,0,3.387-.884,25.5,25.5,0,0,0-7.781-12.659,1.753,1.753,0,1,0-2.416,2.536A22,22,0,0,1,85.356,40.752Z"/><path d="M42.644,51.868a1.75,1.75,0,0,0-3.387.884,25.483,25.483,0,0,0,7.889,12.753,1.75,1.75,0,1,0,2.308-2.63A22,22,0,0,1,42.644,51.868Z"/><path d="M46.13,32.35a1.75,1.75,0,0,0,1.317-.6,21.829,21.829,0,0,1,10.992-6.788,1.75,1.75,0,0,0-.878-3.388,25.31,25.31,0,0,0-12.656,7.767A1.752,1.752,0,0,0,46.13,32.35Z"/><path d="M80.564,60.855a21.888,21.888,0,0,1-11,6.8A1.75,1.75,0,0,0,70,71.1a1.707,1.707,0,0,0,.439-.057A25.373,25.373,0,0,0,83.2,63.164a1.75,1.75,0,0,0-2.631-2.309Z"/><path d="M79.122,40.9a1.75,1.75,0,0,0,3.3-1.182,19.415,19.415,0,0,0-2.736-5.089,1.75,1.75,0,0,0-2.8,2.1A15.891,15.891,0,0,1,79.122,40.9Z"/><path d="M48.877,51.718A1.75,1.75,0,0,0,45.583,52.9,19.41,19.41,0,0,0,48.32,57.99a1.75,1.75,0,1,0,2.8-2.1A15.884,15.884,0,0,1,48.877,51.718Z"/><path d="M57.408,27.893a19.669,19.669,0,0,0-5.081,2.722,1.75,1.75,0,0,0,2.087,2.81,16.174,16.174,0,0,1,4.178-2.238,1.75,1.75,0,1,0-1.184-3.294Z"/><path d="M70,64.831a1.759,1.759,0,0,0,.592-.1,19.388,19.388,0,0,0,5.089-2.738,1.75,1.75,0,0,0-2.1-2.8,15.89,15.89,0,0,1-4.171,2.243,1.751,1.751,0,0,0,.592,3.4Z"/><path d="M64.964,80.7a1.748,1.748,0,0,0,.786-1.46V57.913a11.71,11.71,0,0,0,6.3-3.065,23.438,23.438,0,0,0,10.684,2.925,16.106,16.106,0,0,0,5.2-.844c7.373-2.5,10.488-9.632,10.617-9.935a1.749,1.749,0,0,0-1.609-2.436H75.605a11.7,11.7,0,0,0-3.059-6.289c2.989-5.788,3.688-11.126,2.075-15.885-2.5-7.374-9.632-10.489-9.934-10.619a1.751,1.751,0,0,0-2.437,1.61V34.7a11.7,11.7,0,0,0-6.29,3.059c-5.786-2.989-11.125-3.688-15.884-2.075-7.373,2.5-10.489,9.631-10.618,9.934a1.75,1.75,0,0,0,1.609,2.437H52.4a11.7,11.7,0,0,0,3.059,6.289c-2.988,5.787-3.688,11.125-2.075,15.884,2.5,7.374,9.632,10.49,9.934,10.619a1.751,1.751,0,0,0,1.651-.15ZM86.8,53.614c-3.665,1.242-7.883.7-12.553-1.578a11.65,11.65,0,0,0,1.356-3.978H93.893A14.689,14.689,0,0,1,86.8,53.614Zm-15.5-30.107c1.241,3.665.7,7.883-1.578,12.552A11.634,11.634,0,0,0,65.75,34.7V16.416A14.67,14.67,0,0,1,71.307,23.507ZM64,38.058a8.25,8.25,0,1,1-8.25,8.25A8.259,8.259,0,0,1,64,38.058ZM41.2,39c3.666-1.242,7.884-.7,12.552,1.578A11.648,11.648,0,0,0,52.4,44.558H34.108A14.685,14.685,0,0,1,41.2,39Zm15.5,30.107c-1.242-3.665-.7-7.883,1.577-12.551a11.684,11.684,0,0,0,3.979,1.356V76.2A14.677,14.677,0,0,1,56.694,69.108Z"/><path d="M90.783,109.505a13.7,13.7,0,0,0-12.221-7.447H71.75V87.13a41.558,41.558,0,1,0-15.5,0v14.928H49.438a13.7,13.7,0,0,0-12.22,7.447L31.445,120.7A1.75,1.75,0,0,0,33,123.25H95a1.751,1.751,0,0,0,1.556-2.552Zm-64.841-63.2A38.058,38.058,0,1,1,64,84.365,38.1,38.1,0,0,1,25.942,46.308ZM59.75,87.649a41.919,41.919,0,0,0,8.5,0v14.409h-8.5Zm-23.878,32.1,4.456-8.641a10.212,10.212,0,0,1,9.11-5.551h8.538l.024,0H70l.024,0h8.538a10.213,10.213,0,0,1,9.11,5.551l4.457,8.641Z"/><path d="M56.5,108.667a1.75,1.75,0,0,0-1.75,1.75v4a1.75,1.75,0,0,0,3.5,0v-4A1.75,1.75,0,0,0,56.5,108.667Z"/><path d="M64,108.667a1.75,1.75,0,0,0-1.75,1.75v4a1.75,1.75,0,0,0,3.5,0v-4A1.75,1.75,0,0,0,64,108.667Z"/><path d="M71.5,108.667a1.749,1.749,0,0,0-1.75,1.75v4a1.75,1.75,0,0,0,3.5,0v-4A1.749,1.749,0,0,0,71.5,108.667Z"/></svg>
