<svg id="Layer_1" height="512" viewBox="0 0 128 128" width="512" xmlns="http://www.w3.org/2000/svg" data-name="Layer 1"><path d="m121.5 4.75h-43.5a1.749 1.749 0 0 0 -1.75 1.75v61.149a11.489 11.489 0 0 0 -7.77-3.329c-6.4 0-10.582 2.576-14.273 4.847-1.092.672-2.125 1.3-3.147 1.825v-6.052a1.751 1.751 0 0 0 -1.75-1.75h-1.25v-19.066a1.75 1.75 0 1 0 -3.5 0v19.066h-1.25a1.751 1.751 0 0 0 -1.75 1.75v6.045c-1.02-.522-2.051-1.152-3.141-1.823-3.692-2.274-7.877-4.852-14.279-4.852-12.546 0-19.39 23.372-19.39 35.38 0 5.828 0 23.56 10.39 23.56 2.492 0 4.554-2.979 8.282-8.689 3.39-5.192 8.026-12.292 11.625-12.292h.053c7.213.157 10.617.028 11.208 0 .591.027 4 .157 11.206 0h.055c3.6 0 8.237 7.1 11.627 12.292 3.729 5.71 5.79 8.689 8.282 8.689.117 0 .225-.014.339-.018a1.789 1.789 0 0 0 .181.018h43.5a1.749 1.749 0 0 0 1.75-1.75v-115a1.749 1.749 0 0 0 -1.748-1.75zm-76.44 61.94h2.5v5.521a7.157 7.157 0 0 1 -2.5 0zm27.069 45.957c-4.25-6.508-9.063-13.878-14.562-13.878h-.125c-7.659.166-11.01 0-11.043 0-.059 0-.119 0-.178 0-.034 0-3.386.167-11.045 0h-.125c-5.5 0-10.31 7.37-14.56 13.878-1.842 2.823-4.358 6.674-5.429 7.1-5.628-.097-6.812-10.947-6.812-20.057 0-12.541 6.823-31.88 15.89-31.88 5.41 0 8.986 2.2 12.443 4.332 3.067 1.888 5.963 3.672 9.727 3.678a11.879 11.879 0 0 0 3.323-.492 1.72 1.72 0 0 0 .248-.071 27.393 27.393 0 0 0 6.161-3.11c3.458-2.126 7.031-4.327 12.438-4.327 2.958 0 5.674 2.065 7.995 5.273a1.764 1.764 0 0 0 .261.362c4.646 6.678 7.634 17.945 7.634 26.235 0 9.11-1.184 19.96-6.811 20.059-1.072-.428-3.587-4.279-5.43-7.102zm47.621 7.1h-18.25v-56.872a1.75 1.75 0 0 0 -3.5 0v56.875h-14.025c3.894-5.471 3.9-15.858 3.9-20.06 0-7.685-2.809-20.019-8.12-27.9v-63.54h40z"/><path d="m99.75 32.151a7.25 7.25 0 1 0 -7.25-7.251 7.258 7.258 0 0 0 7.25 7.251zm0-11a3.75 3.75 0 1 1 -3.75 3.749 3.755 3.755 0 0 1 3.75-3.749z"/><circle cx="64.039" cy="78.69" r="4"/><circle cx="64.039" cy="91.947" r="4"/><circle cx="70.667" cy="85.318" r="4"/><circle cx="57.41" cy="85.318" r="4"/><path d="m25.521 85.323-1.256-1.256-1.448-1.448h-4.864v5.399h4.864l1.448-1.448z"/><path d="m26.961 83.874 1.255-1.255 1.44-1.44v-4.864h-5.391v4.864l1.44 1.44z"/><path d="m26.961 86.762-1.256 1.256-1.44 1.44v4.864h5.391v-4.864l-1.44-1.44z"/><path d="m29.656 84.067-1.247 1.256 1.247 1.247 1.448 1.448h4.864v-5.399h-4.864z"/><path d="m99.75 49.25a1.749 1.749 0 0 0 -1.75 1.75v4.313a1.75 1.75 0 0 0 3.5 0v-4.313a1.749 1.749 0 0 0 -1.75-1.75z"/></svg>