<svg id="Layer_1" height="512" viewBox="0 0 128 128" width="512" xmlns="http://www.w3.org/2000/svg" data-name="Layer 1"><path d="m101.985 22.542-24.156-1.454a1.75 1.75 0 1 0 -.21 3.494l24.156 1.454h.107a1.75 1.75 0 0 0 .1-3.5z"/><path d="m121.605 17.713-43.418-2.613a50.667 50.667 0 0 1 -21.2-6.37 33.279 33.279 0 0 0 -15.907-3.98 31.776 31.776 0 0 0 -24.661 11.21h-9.919a1.75 1.75 0 0 0 -1.75 1.75v28.42a1.75 1.75 0 0 0 1.75 1.75h9.923a30.084 30.084 0 0 0 11.077 8.349v36.571a1.75 1.75 0 0 0 1.75 1.75h1.88v7.7a1.75 1.75 0 0 0 1.75 1.75h1.25v17.5a1.75 1.75 0 0 0 3.5 0v-17.5h1.25a1.75 1.75 0 0 0 1.75-1.75v-7.7h1.62a1.749 1.749 0 0 0 1.729-1.482c.018-.115 1.78-11.356 4.932-24.318h4.819a1.75 1.75 0 0 0 1.7-1.313c.486-1.886 1.015-3.914 1.6-5.958a1.75 1.75 0 0 0 -1.69-2.229h-3.905c.19-.662.376-1.323.572-1.982a31.937 31.937 0 0 0 4.98-2.17 50.508 50.508 0 0 1 21.2-6.361l43.419-2.62a1.75 1.75 0 0 0 1.645-1.747v-24.91a1.75 1.75 0 0 0 -1.646-1.747zm-4.355 25.159v-21.914l2.5.15v21.614zm-109 1.508v-24.92h5.74a24.46 24.46 0 0 0 0 24.92zm28.88 56.12h-2.5v-5.95h2.5zm15.245-35.25h-2.585c.208-.8.428-1.64.661-2.5h2.588c-.232.855-.455 1.698-.664 2.5zm-4.95-4.722c-.026.089-.049.179-.068.263-.56 2.022-1.064 3.989-1.484 5.65-.009.035-.016.07-.023.105l-.008.032c-2.708 10.9-4.466 20.822-5.079 24.472h-9.763v-33.5a33.729 33.729 0 0 0 10.08 1.53 34.17 34.17 0 0 0 6.973-.731c-.208.728-.428 1.451-.628 2.179zm30.551-15.285a53.992 53.992 0 0 0 -22.664 6.781 28.625 28.625 0 0 1 -5.227 2.2l-.034.009a30.414 30.414 0 0 1 -8.971 1.347 30.046 30.046 0 0 1 -11.133-2.114l-.042-.016c-9.325-3.732-15.825-11.976-15.825-21.53 0-13.052 12.112-23.67 27-23.67a29.762 29.762 0 0 1 14.233 3.557 54.133 54.133 0 0 0 22.662 6.793l35.775 2.151v22.333z"/><path d="m49.835 22h-19.335a1.75 1.75 0 1 0 0 3.5h19.335a1.75 1.75 0 1 0 0-3.5z"/><path d="m49.835 30.165h-19.335a1.75 1.75 0 0 0 0 3.5h19.335a1.75 1.75 0 0 0 0-3.5z"/><path d="m49.835 38.33h-19.335a1.75 1.75 0 1 0 0 3.5h19.335a1.75 1.75 0 0 0 0-3.5z"/></svg>