<svg id="Layer_1" height="512" viewBox="0 0 128 128" width="512" xmlns="http://www.w3.org/2000/svg" data-name="Layer 1"><path d="m114.147 17.6a1.746 1.746 0 0 0 -1.5-.845h-8.589a13.76 13.76 0 0 0 -13.625-12h-39.983a13.761 13.761 0 0 0 -13.742 13.587c0 .023-.009.043-.01.066l-.367 7.012h-14.981a7.758 7.758 0 0 0 -7.75 7.75v25.58a7.7 7.7 0 0 0 2.169 5.373l5.047 5.248a7.768 7.768 0 0 0 5.584 2.379h7.5l-1.675 31.967-.271 5.061a13.748 13.748 0 0 0 13.733 14.472h49.513a13.751 13.751 0 0 0 13.738-14.474l-3.798-72.192 9.06-17.271a1.748 1.748 0 0 0 -.053-1.713zm-79.747 44.65h-7.254l-4.046-4.2v-23.13h12.733zm3.092 7.805c0-.018.006-.036.006-.055v-.017l.3-5.813a1.6 1.6 0 0 0 .022-.17c0-.018-.005-.035-.005-.053l1.558-29.7a1.73 1.73 0 0 0 .377-1.073v-6c0-.013 0-.024 0-.037l.361-6.883h60.669l4.3 81.811h-69.265zm12.958-61.805h39.986a10.267 10.267 0 0 1 10.1 8.5h-60.186a10.267 10.267 0 0 1 10.1-8.5zm-24.05 60a4.25 4.25 0 0 1 -3.058-1.3l-5.052-5.25a4.219 4.219 0 0 1 -1.19-2.95v-25.58a4.254 4.254 0 0 1 4.25-4.25h14.8l-.131 2.5h-14.669a1.749 1.749 0 0 0 -1.75 1.75v25.58a1.742 1.742 0 0 0 .489 1.213l5.051 5.25a1.743 1.743 0 0 0 1.26.537h7.818l-.131 2.5zm76.239 48.305a10.169 10.169 0 0 1 -7.439 3.195h-49.513a10.248 10.248 0 0 1 -10.234-10.786l.183-3.4h69.621l.181 3.4a10.156 10.156 0 0 1 -2.799 7.591zm2.141-86.819-.5-9.486h5.475z"/><path d="m67.932 93.167h5.022a8.182 8.182 0 0 0 8.161-8.747l-.125-1.813c0-.022.006-.043.006-.065a1.781 1.781 0 0 0 -.035-.352l-.515-7.428c0-.019 0-.036 0-.054a1.739 1.739 0 0 0 -.029-.291l-.52-7.506c0-.012 0-.024 0-.036a1.583 1.583 0 0 0 -.02-.2l-.527-7.611c0-.009 0-.016 0-.025 0-.046-.01-.089-.013-.134l-.533-7.692v-.008c0-.015 0-.028 0-.043l-.204-2.962a8.181 8.181 0 0 0 -16.322 0l-2.507 36.22a8.182 8.182 0 0 0 8.161 8.747zm-2.158-44.727a4.68 4.68 0 0 1 9.338 0l.071 1.018h-4.119a1.75 1.75 0 0 0 0 3.5h4.361l.3 4.334h-4.115a1.75 1.75 0 1 0 0 3.5h4.358l.3 4.333h-4.113a1.75 1.75 0 0 0 0 3.5h4.356l.3 4.333h-4.111a1.75 1.75 0 0 0 0 3.5h4.353l.3 4.334h-4.107a1.75 1.75 0 0 0 0 3.5h4.354l.026.37a4.68 4.68 0 0 1 -4.669 5h-5.025a4.68 4.68 0 0 1 -4.669-5z"/></svg>