<svg id="Layer_1" height="512" viewBox="0 0 128 128" width="512" xmlns="http://www.w3.org/2000/svg" data-name="Layer 1"><path d="m103.654 42.5h-79.308a1.75 1.75 0 0 0 -1.75 1.75v68.25a1.75 1.75 0 0 0 1.75 1.75h79.308a1.75 1.75 0 0 0 1.75-1.75v-68.25a1.75 1.75 0 0 0 -1.75-1.75zm-1.754 3.5v46.25h-75.8v-46.25zm-75.8 64.75v-15h75.8v15z"/><path d="m46.75 55h34.5a1.75 1.75 0 0 0 0-3.5h-34.5a1.75 1.75 0 0 0 0 3.5z"/><path d="m37.611 13.125a7.75 7.75 0 1 0 7.75 7.75 7.759 7.759 0 0 0 -7.75-7.75zm0 12a4.25 4.25 0 1 1 4.25-4.25 4.255 4.255 0 0 1 -4.25 4.25z"/><path d="m90.389 13.125a7.75 7.75 0 1 0 7.75 7.75 7.759 7.759 0 0 0 -7.75-7.75zm0 12a4.25 4.25 0 1 1 4.25-4.25 4.255 4.255 0 0 1 -4.25 4.25z"/><path d="m74 16.125h-20a1.75 1.75 0 0 0 -1.75 1.75v6a1.75 1.75 0 0 0 1.75 1.75h20a1.75 1.75 0 0 0 1.75-1.75v-6a1.75 1.75 0 0 0 -1.75-1.75zm-1.75 6h-16.5v-2.5h16.5z"/><path d="m112.654 4.75h-97.308a1.75 1.75 0 0 0 -1.746 1.75v115a1.75 1.75 0 0 0 1.75 1.75h97.308a1.75 1.75 0 0 0 1.75-1.75v-115a1.75 1.75 0 0 0 -1.754-1.75zm-95.554 3.5h93.8v25.25h-93.8zm0 111.5v-82.75h93.8v82.75z"/></svg>