<svg id="Layer_1" height="512" viewBox="0 0 128 128" width="512" xmlns="http://www.w3.org/2000/svg" data-name="Layer 1"><path d="m121.5 40.135h-81.62a7.2 7.2 0 0 0 -.915-3.174l65.55-28.861a1.75 1.75 0 0 0 -1.415-3.2l-66.744 29.386a7.219 7.219 0 0 0 -10.938 5.849h-18.918a1.75 1.75 0 0 0 -1.75 1.75v79.615a1.75 1.75 0 0 0 1.75 1.75h115a1.749 1.749 0 0 0 1.75-1.75v-79.615a1.749 1.749 0 0 0 -1.75-1.75zm-88.85-3.385a3.721 3.721 0 0 1 3.709 3.385h-7.422a3.742 3.742 0 0 1 3.713-3.385zm87.1 83h-111.5v-76.115h111.5z"/><path d="m101.021 88.655v-1.583a1.75 1.75 0 0 0 -3.5 0v1.583a10.273 10.273 0 1 0 3.5 0zm-1.75 16.885a6.768 6.768 0 0 1 -1.75-13.308v1.185a1.75 1.75 0 0 0 3.5 0v-1.185a6.768 6.768 0 0 1 -1.75 13.308z"/><path d="m64 86.75h-39.25a1.75 1.75 0 0 0 0 3.5h39.25a1.75 1.75 0 0 0 0-3.5z"/><path d="m64 97.018h-39.25a1.75 1.75 0 0 0 0 3.5h39.25a1.75 1.75 0 0 0 0-3.5z"/><path d="m64 107.285h-39.25a1.75 1.75 0 0 0 0 3.5h39.25a1.75 1.75 0 0 0 0-3.5z"/><path d="m15.5 76.772h97a1.749 1.749 0 0 0 1.75-1.75v-24.14a1.749 1.749 0 0 0 -1.75-1.75h-97a1.75 1.75 0 0 0 -1.75 1.75v24.14a1.75 1.75 0 0 0 1.75 1.75zm1.75-24.14h9.25v4.595a1.75 1.75 0 1 0 3.5 0v-4.595h8.417v4.595a1.75 1.75 0 1 0 3.5 0v-4.595h8.416v4.595a1.75 1.75 0 1 0 3.5 0v-4.595h8.417v4.595a1.75 1.75 0 1 0 3.5 0v-4.595h8.417v4.595a1.75 1.75 0 1 0 3.5 0v-4.595h8.416v4.595a1.75 1.75 0 1 0 3.5 0v-4.595h8.417v4.595a1.75 1.75 0 1 0 3.5 0v-4.595h9.25v20.64h-93.5z"/></svg>