<svg id="Layer_1" height="512" viewBox="0 0 128 128" width="512" xmlns="http://www.w3.org/2000/svg" data-name="Layer 1"><path d="m106.654 58.583a1.75 1.75 0 0 0 -1.75 1.75v22.867a1.75 1.75 0 0 0 3.5 0v-22.867a1.75 1.75 0 0 0 -1.75-1.75z"/><path d="m64 83.167a7.25 7.25 0 1 0 -7.25-7.25 7.258 7.258 0 0 0 7.25 7.25zm0-11a3.75 3.75 0 1 1 -3.75 3.75 3.755 3.755 0 0 1 3.75-3.75z"/><path d="m51.25 90.249h25.5a1.75 1.75 0 0 0 0-3.5h-25.5a1.75 1.75 0 0 0 0 3.5z"/><path d="m51.25 97.728h25.5a1.75 1.75 0 0 0 0-3.5h-25.5a1.75 1.75 0 0 0 0 3.5z"/><path d="m121.5 35.321h-7.1v-5.409c0-.014 0-.027 0-.04s0-.027 0-.04a17.1 17.1 0 0 0 -17.073-17.077h-16.41a9.764 9.764 0 0 0 -9.589-8.005h-14.656a9.764 9.764 0 0 0 -9.589 8.005h-16.41a17.114 17.114 0 0 0 -17.073 17.157v5.409h-7.1a1.75 1.75 0 0 0 -1.75 1.75v4.839a1.749 1.749 0 0 0 .387 1.1l8.463 10.515v49.557a13.765 13.765 0 0 0 11.244 13.51v4.908a1.75 1.75 0 0 0 1.75 1.75h14.666a1.75 1.75 0 0 0 1.75-1.75v-4.668h41.98v4.668a1.75 1.75 0 0 0 1.75 1.75h14.67a1.75 1.75 0 0 0 1.75-1.75v-4.908a13.765 13.765 0 0 0 11.244-13.51v-49.557l8.459-10.519a1.749 1.749 0 0 0 .387-1.1v-4.835a1.75 1.75 0 0 0 -1.75-1.75zm-33.01 66.011v-38.019a1.75 1.75 0 0 0 -1.75-1.75h-45.48a1.75 1.75 0 0 0 -1.75 1.75v38.019h-22.41v-57.67h93.8v57.67zm-3.5 0h-41.98v-36.269h41.98zm25.91-61.17h-93.8v-8.5h93.8zm-54.228-31.912h14.656a6.267 6.267 0 0 1 6.006 4.505h-26.668a6.267 6.267 0 0 1 6.006-4.505zm-26 8h66.655a13.6 13.6 0 0 1 13.467 11.907h-93.594a13.6 13.6 0 0 1 13.473-11.902zm-22.422 25.043v-2.472h5.35v9.12zm31.26 78.457h-11.17v-2.918h11.17zm48.98 0v-2.918h11.17v2.918zm12.164-6.418h-13.9-.015-.014-45.451-.014-.015-13.9a10.26 10.26 0 0 1 -10.09-8.5h93.488a10.26 10.26 0 0 1 -10.089 8.5zm19.1-72.039-5.354 6.648v-9.12h5.346z"/></svg>