<svg id="Layer_1" height="512" viewBox="0 0 128 128" width="512" xmlns="http://www.w3.org/2000/svg" data-name="Layer 1"><path d="m121.5 93.211h-49.922l-4.1-27.42a13.846 13.846 0 0 1 13.692-15.891h8.17a17.591 17.591 0 0 1 15.676 9.554 1.749 1.749 0 0 0 1.554.946h1.959v7a1.75 1.75 0 0 0 3.5 0v-7h2.121a1.75 1.75 0 0 0 1.75-1.75v-34.33a1.75 1.75 0 0 0 -1.75-1.75h-2.121v-2.541a1.75 1.75 0 0 0 -1.75-1.75h-50.379v-1.179h2.562a1.75 1.75 0 0 0 0-3.5h-19.371a1.75 1.75 0 0 0 0 3.5h2.563v12.054a1.75 1.75 0 0 0 1.746 1.746h3.63v2.17h-5.54a12.6 12.6 0 0 0 -12.59 12.58v1.32h-9.958v-4.941a4.75 4.75 0 0 0 -9.5 0v12.621h-6.942a1.75 1.75 0 0 0 0 3.5h6.942v3.25a4.75 4.75 0 0 0 9.5 0v-4.93h9.958v36.741h-16.054a1.751 1.751 0 0 0 -1.75 1.75v17.693a1.751 1.751 0 0 0 1.75 1.75h104.654a1.75 1.75 0 0 0 1.75-1.75v-17.693a1.75 1.75 0 0 0 -1.75-1.75zm-72.346-76.111h7.246v10.3h-3.582c-.013 0-.025 0-.038 0s-.026 0-.039 0h-3.587zm5.376 13.8h3.624a1.751 1.751 0 0 0 1.75-1.75v-7.371h48.625v.791h-1.959a1.747 1.747 0 0 0 -1.554.947 17.58 17.58 0 0 1 -15.676 9.553h-34.81zm-36.338 31.754a1.251 1.251 0 0 1 -1.25-1.25v-19.375a1.25 1.25 0 0 1 2.5 0v6.671.019.02 5.961.019.02 6.661a1.252 1.252 0 0 1 -1.25 1.254zm4.75-9.684v-2.5h9.958v2.5zm13.458-7.32a9.1 9.1 0 0 1 9.09-9.08h43.85a21.059 21.059 0 0 0 18.265-10.5h4.8v30.83h-4.8a21.069 21.069 0 0 0 -18.265-10.5h-8.17a17.344 17.344 0 0 0 -17.151 19.909l4.021 26.9h-31.64zm83.35 65.25h-101.15v-14.189h101.15z"/><path d="m53.827 69.251h-2.25v-5.251a1.75 1.75 0 1 0 -3.5 0v5.253h-2.25a1.75 1.75 0 0 0 0 3.5h2.25v12.5a1.75 1.75 0 0 0 3.5 0v-12.5h2.25a1.75 1.75 0 0 0 0-3.5z"/><path d="m49.827 41.718a7.25 7.25 0 1 0 7.25 7.25 7.258 7.258 0 0 0 -7.25-7.25zm0 11a3.75 3.75 0 1 1 3.75-3.75 3.754 3.754 0 0 1 -3.75 3.75z"/></svg>