<svg id="Layer_1" height="512" viewBox="0 0 128 128" width="512" xmlns="http://www.w3.org/2000/svg" data-name="Layer 1"><path d="m64 100.784a7.25 7.25 0 1 0 7.25 7.25 7.258 7.258 0 0 0 -7.25-7.25zm0 11a3.75 3.75 0 1 1 3.75-3.75 3.755 3.755 0 0 1 -3.75 3.75z"/><path d="m91.808 4.75h-55.616a13.765 13.765 0 0 0 -13.75 13.75v91a13.765 13.765 0 0 0 13.75 13.75h55.616a13.765 13.765 0 0 0 13.75-13.75v-91a13.765 13.765 0 0 0 -13.75-13.75zm-10.979 3.5-1.22 3.333h-31.218l-1.22-3.333zm21.229 101.25a10.261 10.261 0 0 1 -10.25 10.25h-55.616a10.261 10.261 0 0 1 -10.25-10.25v-91a10.261 10.261 0 0 1 10.25-10.25h7.252l2.079 5.685a1.753 1.753 0 0 0 1.644 1.148h33.666a1.753 1.753 0 0 0 1.644-1.148l2.079-5.685h7.252a10.261 10.261 0 0 1 10.25 10.25z"/><path d="m97.808 40.25a1.749 1.749 0 0 0 -1.75 1.75v28.667a1.75 1.75 0 0 0 3.5 0v-28.667a1.75 1.75 0 0 0 -1.75-1.75z"/></svg>