<svg id="Layer_1" height="512" viewBox="0 0 128 128" width="512" xmlns="http://www.w3.org/2000/svg" data-name="Layer 1"><path d="m24.5 31.94h27.5a1.75 1.75 0 0 0 0-3.5h-27.5a1.75 1.75 0 0 0 0 3.5z"/><path d="m76 31.942h27.5a1.75 1.75 0 0 0 0-3.5h-27.5a1.75 1.75 0 0 0 0 3.5z"/><path d="m121.5 45.248h-4.25v-9.058a13.765 13.765 0 0 0 -13.75-13.75h-27.5a13.758 13.758 0 0 0 -11.994 7.033 13.909 13.909 0 0 0 -2.278-3.01 13.666 13.666 0 0 0 -9.728-4.023h-27.5a13.765 13.765 0 0 0 -13.75 13.75v9.058h-4.25a1.75 1.75 0 0 0 -1.75 1.752v30a22.6 22.6 0 0 0 17.312 21.94l1.633 5.379a1.751 1.751 0 0 0 1.675 1.243h8.82a1.751 1.751 0 0 0 1.75-1.75v-4.251h56.12v4.249a1.751 1.751 0 0 0 1.75 1.75h8.82a1.751 1.751 0 0 0 1.675-1.243l1.633-5.379a22.6 22.6 0 0 0 17.312-21.938v-30a1.75 1.75 0 0 0 -1.75-1.752zm-107.25-9.058a10.261 10.261 0 0 1 10.25-10.25h27.5a10.234 10.234 0 0 1 10.25 10.25 1.75 1.75 0 0 0 3.5 0 10.261 10.261 0 0 1 10.25-10.25h27.5a10.261 10.261 0 0 1 10.25 10.25v9.058h-4.25a1.75 1.75 0 0 0 -1.717 1.413l-4.473 22.786a10.726 10.726 0 0 0 -8.5-4.2h-61.618a10.726 10.726 0 0 0 -8.5 4.2l-4.475-22.786a1.75 1.75 0 0 0 -1.717-1.413h-4.25zm87.594 38.06h-75.688a7.263 7.263 0 0 1 7.036-5.5h61.616a7.263 7.263 0 0 1 7.036 5.5zm-69.4 27.81h-5.776l-.768-2.549c.469.03.941.05 1.417.05h5.123zm68.892 0h-5.776v-2.5h5.128c.476 0 .948-.02 1.417-.05zm18.414-25.06a19.084 19.084 0 0 1 -19.062 19.063h-73.376a19.084 19.084 0 0 1 -19.062-19.063v-28.252h4.231.019.019 4.541l5.415 27.589a1.757 1.757 0 0 0 .2.518c.013.022.023.046.037.068a1.754 1.754 0 0 0 .336.388c.024.021.047.04.072.06a1.756 1.756 0 0 0 .448.255c.024.01.049.015.074.023a1.726 1.726 0 0 0 .549.1h79.616a1.726 1.726 0 0 0 .549-.1c.025-.008.05-.013.074-.023a1.756 1.756 0 0 0 .448-.255c.025-.02.048-.039.072-.06a1.754 1.754 0 0 0 .336-.388c.014-.022.024-.046.037-.068a1.757 1.757 0 0 0 .2-.518l5.415-27.589h4.541.019.019 4.231z"/><path d="m72.292 90.061h-4.209a1.75 1.75 0 0 0 0 3.5h4.209a1.75 1.75 0 0 0 0-3.5z"/><path d="m90.667 90.061h-11.25a1.75 1.75 0 0 0 0 3.5h11.25a1.75 1.75 0 0 0 0-3.5z"/></svg>