<svg id="Layer_1" height="512" viewBox="0 0 128 128" width="512" xmlns="http://www.w3.org/2000/svg" data-name="Layer 1"><path d="m103.808 4.75h-79.616a1.751 1.751 0 0 0 -1.75 1.75v109a1.751 1.751 0 0 0 1.75 1.75h7.448v4.25a1.75 1.75 0 0 0 1.75 1.75h12a1.751 1.751 0 0 0 1.75-1.75v-4.25h33.72v4.25a1.751 1.751 0 0 0 1.75 1.75h12a1.75 1.75 0 0 0 1.75-1.75v-4.25h7.448a1.751 1.751 0 0 0 1.75-1.75v-109a1.751 1.751 0 0 0 -1.75-1.75zm-60.168 115h-8.5v-2.5h8.5zm49.22 0h-8.5v-2.5h8.5zm-66.918-6v-34.85h7.458a1.75 1.75 0 0 0 0-3.5h-7.458v-67.15h76.116v67.15h-7.453a1.75 1.75 0 0 0 0 3.5h7.453v34.85z"/><path d="m47.376 79.875a13.25 13.25 0 1 0 13.25 13.25 13.265 13.265 0 0 0 -13.25-13.25zm0 23a9.75 9.75 0 1 1 9.75-9.75 9.761 9.761 0 0 1 -9.75 9.75z"/><path d="m47.376 85.875a7.25 7.25 0 1 0 7.25 7.25 7.258 7.258 0 0 0 -7.25-7.25zm0 11a3.75 3.75 0 1 1 3.75-3.75 3.755 3.755 0 0 1 -3.75 3.75z"/><path d="m80.624 79.875a13.25 13.25 0 1 0 13.25 13.25 13.265 13.265 0 0 0 -13.25-13.25zm0 23a9.75 9.75 0 1 1 9.75-9.75 9.761 9.761 0 0 1 -9.75 9.75z"/><path d="m80.624 85.875a7.25 7.25 0 1 0 7.25 7.25 7.258 7.258 0 0 0 -7.25-7.25zm0 11a3.75 3.75 0 1 1 3.75-3.75 3.755 3.755 0 0 1 -3.75 3.75z"/><path d="m94.654 43.763a30.654 30.654 0 1 0 -30.654 30.654 30.689 30.689 0 0 0 30.654-30.654zm-30.654 27.154a27.154 27.154 0 1 1 27.154-27.154 27.184 27.184 0 0 1 -27.154 27.154z"/><path d="m64 30.513a13.25 13.25 0 1 0 13.25 13.25 13.265 13.265 0 0 0 -13.25-13.25zm0 23a9.75 9.75 0 1 1 9.75-9.75 9.761 9.761 0 0 1 -9.75 9.75z"/></svg>