<svg id="Layer_1" height="512" viewBox="0 0 128 128" width="512" xmlns="http://www.w3.org/2000/svg" data-name="Layer 1"><path d="m122.677 52.844-4.691-4.26a1.754 1.754 0 0 0 -1.941-.278 74.356 74.356 0 0 0 -16.985 11.909c-.234-.671-.486-1.334-.772-1.981a26.337 26.337 0 0 0 -6.4-8.9l-.682-.631a28.59 28.59 0 0 0 -17.019-7.36 13.819 13.819 0 0 0 -9.237-7.522 7.25 7.25 0 1 0 -11.9 0 13.817 13.817 0 0 0 -9.233 7.52 28.6 28.6 0 0 0 -17.037 7.371l-.66.61a26.4 26.4 0 0 0 -5.468 7 13.585 13.585 0 0 0 -15.902 13.388 13.559 13.559 0 0 0 7.988 12.374l7.586 3.435c.383 1.07.791 2.135 1.251 3.186a49.219 49.219 0 0 0 3.778 6.974l.006.014c.063.107.129.207.195.306l.08.122c.323.486.672.95 1.032 1.4l.169.207a21.491 21.491 0 0 0 16.728 7.825h30.866a21.41 21.41 0 0 0 17.929-9.436c.879-1.322 1.689-2.695 2.438-4.1 6.59-2 10.923-5.559 12.541-10.322 4.123-12.137 8.1-22.472 14.964-26.007a1.75 1.75 0 0 0 .376-2.851zm-63.677-26.902a3.749 3.749 0 0 1 .019 7.5h-.038a3.749 3.749 0 0 1 .019-7.5zm-2.747 11h2.708.039.039 2.711a10.283 10.283 0 0 1 8.336 4.31h-22.172a10.283 10.283 0 0 1 8.336-4.312zm-42.077 41.952a10.081 10.081 0 0 1 4.953-19.236 26.773 26.773 0 0 0 -1.692 9.312 48.894 48.894 0 0 0 1.516 12.087zm6.761-9.924a23.225 23.225 0 0 1 1.971-9.324 22.916 22.916 0 0 1 5.577-7.746l.659-.609a25.107 25.107 0 0 1 16.923-6.541h25.86a25.1 25.1 0 0 1 16.912 6.534l.68.63a22.883 22.883 0 0 1 5.567 7.734 23.211 23.211 0 0 1 1.971 9.322 45.166 45.166 0 0 1 -6.9 24.09h-62.321a45.173 45.173 0 0 1 -6.9-24.09zm22.628 33.09a18.15 18.15 0 0 1 -12.287-4.7l.014-.007c-.256-.235-.513-.467-.758-.715l-.074-.079h57.074c-.016.016-.031.034-.048.051-.259.265-.535.512-.808.762h.021a18.15 18.15 0 0 1 -12.27 4.683zm60.457-21.483c-1 2.947-3.4 5.268-7.118 6.94a48.883 48.883 0 0 0 3.653-18.547 26.522 26.522 0 0 0 -.476-4.934 75.121 75.121 0 0 1 16.44-12.055l2.078 1.888c-6.699 4.793-10.459 14.592-14.577 26.708z"/><path d="m66.028 50.75h5.9a19.126 19.126 0 0 1 12.887 4.984 1.75 1.75 0 1 0 2.354-2.589 22.613 22.613 0 0 0 -15.241-5.9h-5.9a1.75 1.75 0 0 0 0 3.5z"/></svg>