<?xml version="1.0"?>
<svg xmlns="http://www.w3.org/2000/svg" id="Layer_1" data-name="Layer 1" viewBox="0 0 128 128" width="512" height="512"><title>TELEPHONE</title><path d="M107.161,11.473C100.409,8.9,85.823,4.594,64,4.594S27.591,8.9,20.826,11.479C7.438,16.7,2.478,33.334,5.653,41.961l.565,1.666a7.76,7.76,0,0,0,7.357,5.265,7.553,7.553,0,0,0,3.111-.663l13.762-5.562a4.771,4.771,0,0,0,2.744-5.853L31.73,32.249a5.314,5.314,0,0,1,3.329-6.633C44.492,22.25,57.668,22.25,64,22.25s19.508,0,28.941,3.366a5.314,5.314,0,0,1,3.329,6.633l-1.462,4.565a4.771,4.771,0,0,0,2.744,5.853l13.7,5.534a7.75,7.75,0,0,0,10.533-4.574l.55-1.623C125.522,33.334,120.562,16.7,107.161,11.473Zm11.871,29.364-.565,1.666a4.2,4.2,0,0,1-2.332,2.535,4.252,4.252,0,0,1-3.51-.054L98.863,39.421a1.255,1.255,0,0,1-.722-1.54L99.6,33.316a8.8,8.8,0,0,0-5.486-11C84.113,18.75,70.529,18.75,64,18.75s-20.113,0-30.117,3.569a8.8,8.8,0,0,0-5.486,11l1.462,4.565a1.255,1.255,0,0,1-.722,1.54L15.309,45.012A4.249,4.249,0,0,1,9.533,42.5L8.953,40.8C6.64,34.509,9.959,19.471,22.084,14.745,28.611,12.261,42.736,8.094,64,8.094s35.389,4.167,41.9,6.645C118.041,19.471,121.36,34.509,119.032,40.837Z"/><path d="M96.892,46.16a1.751,1.751,0,0,0-1.642-1.143H85.583V35a1.75,1.75,0,0,0-1.75-1.75h-12A1.751,1.751,0,0,0,70.083,35V45.017H57.917V35a1.751,1.751,0,0,0-1.75-1.75h-12A1.75,1.75,0,0,0,42.417,35V45.017H32.75a1.751,1.751,0,0,0-1.642,1.143L13.118,94.854a1.74,1.74,0,0,0-.108.606V121.5a1.75,1.75,0,0,0,1.75,1.75h98.48a1.75,1.75,0,0,0,1.75-1.75V95.46a1.74,1.74,0,0,0-.108-.606Zm14.6,73.59H16.51V95.773L33.969,48.517h10.2a1.751,1.751,0,0,0,1.75-1.75V36.75h8.5V46.767a1.75,1.75,0,0,0,1.75,1.75H71.833a1.75,1.75,0,0,0,1.75-1.75V36.75h8.5V46.767a1.751,1.751,0,0,0,1.75,1.75h10.2L111.49,95.773Z"/><path d="M64,56A22.25,22.25,0,1,0,86.25,78.25,22.275,22.275,0,0,0,64,56Zm0,41A18.75,18.75,0,1,1,82.75,78.25,18.771,18.771,0,0,1,64,97Z"/><path d="M64,65A13.25,13.25,0,1,0,77.25,78.25,13.265,13.265,0,0,0,64,65Zm0,23a9.75,9.75,0,1,1,9.75-9.75A9.761,9.761,0,0,1,64,88Z"/></svg>
