<svg id="Layer_1" height="512" viewBox="0 0 128 128" width="512" xmlns="http://www.w3.org/2000/svg" data-name="Layer 1"><path d="m103.808 4.75h-79.616a1.75 1.75 0 0 0 -1.75 1.75v109.2a1.75 1.75 0 0 0 1.75 1.75h5.638v4.25a1.749 1.749 0 0 0 1.75 1.75h6a1.749 1.749 0 0 0 1.75-1.75v-4.25h49.34v4.25a1.749 1.749 0 0 0 1.75 1.75h6a1.749 1.749 0 0 0 1.75-1.75v-4.25h5.638a1.75 1.75 0 0 0 1.75-1.75v-109.2a1.75 1.75 0 0 0 -1.75-1.75zm-67.978 115.2h-2.5v-2.5h2.5zm58.84 0h-2.5v-2.5h2.5zm7.388-6h-76.116v-105.7h76.116z"/><path d="m33.192 86.526h61.616a1.75 1.75 0 0 0 1.75-1.75v-49.615a1.75 1.75 0 0 0 -1.75-1.75h-61.616a1.75 1.75 0 0 0 -1.75 1.75v49.615a1.75 1.75 0 0 0 1.75 1.75zm42.261-23.346h-5.3v-6.423h5.3zm3.5-6.423h5.3v6.423h-5.3zm-12.3 6.423h-5.3v-6.423h5.3zm-8.8 0h-5.3v-6.423h5.3zm-8.8 0h-5.3v-6.423h5.3zm0 3.5v6.42h-5.3v-6.42zm3.5 0h5.3v6.42h-5.3zm8.8 0h5.3v6.42h-5.3zm8.8 0h5.3v6.42h-5.3zm8.8 0h5.3v6.42h-5.3zm8.8 0h5.3v6.42h-5.3zm0-3.5v-6.423h5.3v6.423zm0-9.923v-6.423h5.3v6.423zm-3.5 0h-5.3v-6.423h5.3zm-8.8 0h-5.3v-6.423h5.3zm-8.8 0h-5.3v-6.423h5.3zm-8.8 0h-5.3v-6.423h5.3zm-8.8 0h-5.3v-6.423h5.3zm-8.8 0h-5.3v-6.423h5.3zm0 3.5v6.423h-5.3v-6.423zm0 9.923v6.42h-5.3v-6.42zm0 9.923v6.423h-5.3v-6.426zm3.5 0h5.3v6.423h-5.3zm8.8 0h5.3v6.423h-5.3zm8.8 0h5.3v6.423h-5.3zm8.8 0h5.3v6.423h-5.3zm8.8 0h5.3v6.423h-5.3zm8.8 0h5.3v6.423h-5.3zm5.3-33.269h-5.3v-6.423h5.3zm-8.8 0h-5.3v-6.423h5.3zm-8.8 0h-5.3v-6.423h5.3zm-8.8 0h-5.3v-6.423h5.3zm-8.8 0h-5.3v-6.423h5.3zm-8.8 0h-5.3v-6.423h5.3zm-8.8 0h-5.3v-6.423h5.3z"/><path d="m33.192 28.411a1.749 1.749 0 0 0 1.75-1.75v-9a1.75 1.75 0 1 0 -3.5 0v9a1.75 1.75 0 0 0 1.75 1.75z"/><path d="m41.994 28.411a1.749 1.749 0 0 0 1.75-1.75v-9a1.75 1.75 0 0 0 -3.5 0v9a1.749 1.749 0 0 0 1.75 1.75z"/><path d="m50.8 28.411a1.749 1.749 0 0 0 1.75-1.75v-9a1.75 1.75 0 1 0 -3.5 0v9a1.749 1.749 0 0 0 1.75 1.75z"/><path d="m59.6 28.411a1.75 1.75 0 0 0 1.75-1.75v-9a1.75 1.75 0 1 0 -3.5 0v9a1.749 1.749 0 0 0 1.75 1.75z"/><path d="m68.4 28.411a1.749 1.749 0 0 0 1.75-1.75v-9a1.75 1.75 0 0 0 -3.5 0v9a1.75 1.75 0 0 0 1.75 1.75z"/><path d="m77.2 28.411a1.749 1.749 0 0 0 1.75-1.75v-9a1.75 1.75 0 0 0 -3.5 0v9a1.749 1.749 0 0 0 1.75 1.75z"/><path d="m86.006 28.411a1.749 1.749 0 0 0 1.75-1.75v-9a1.75 1.75 0 0 0 -3.5 0v9a1.749 1.749 0 0 0 1.75 1.75z"/><path d="m94.808 28.411a1.75 1.75 0 0 0 1.75-1.75v-9a1.75 1.75 0 0 0 -3.5 0v9a1.749 1.749 0 0 0 1.75 1.75z"/><path d="m71.25 93.032a7.25 7.25 0 1 0 7.25 7.25 7.258 7.258 0 0 0 -7.25-7.25zm0 11a3.75 3.75 0 1 1 3.75-3.75 3.755 3.755 0 0 1 -3.75 3.75z"/><path d="m89.308 93.032a7.25 7.25 0 1 0 7.25 7.25 7.258 7.258 0 0 0 -7.25-7.25zm0 11a3.75 3.75 0 1 1 3.75-3.75 3.754 3.754 0 0 1 -3.75 3.75z"/></svg>