<svg id="Layer_1" height="512" viewBox="0 0 128 128" width="512" xmlns="http://www.w3.org/2000/svg" data-name="Layer 1"><path d="m121.5 96.5h-35.85v-3.634h24.458a1.75 1.75 0 0 0 1.75-1.75v-75.449a1.75 1.75 0 0 0 -1.75-1.75h-31.088v-7.417a1.75 1.75 0 0 0 -1.75-1.75h-26.54a1.75 1.75 0 0 0 -1.75 1.75v7.417h-31.088a1.75 1.75 0 0 0 -1.75 1.75v75.449a1.75 1.75 0 0 0 1.75 1.75h24.458v3.634h-35.85a1.75 1.75 0 0 0 -1.75 1.75v6a1.75 1.75 0 0 0 1.75 1.75h2.49v9.5a1.75 1.75 0 0 0 1.75 1.75h5.57v4.25a1.75 1.75 0 0 0 1.75 1.75h14.67a1.75 1.75 0 0 0 1.75-1.75v-4.25h59.04v4.25a1.75 1.75 0 0 0 1.75 1.75h14.67a1.75 1.75 0 0 0 1.75-1.75v-4.25h5.57a1.75 1.75 0 0 0 1.75-1.75v-9.5h2.49a1.75 1.75 0 0 0 1.75-1.75v-6a1.75 1.75 0 0 0 -1.75-1.75zm-69.02-88.25h23.04v5.667h-23.04zm-32.838 9.167h31.058.029s.019 0 .029 0h26.483.029s.019 0 .029 0h31.059v71.949h-88.716zm26.208 75.449h36.3v3.634h-36.3zm-14.87 26.884h-11.17v-2.5h11.17zm77.21 0h-11.17v-2.5h11.17zm7.32-6h-103.02v-7.75h103.02zm4.24-11.25h-111.5v-2.5h111.5z"/><path d="m59.5 22.92h-32.61a1.75 1.75 0 0 0 -1.75 1.75v24.22a1.751 1.751 0 0 0 1.75 1.75h32.61a1.751 1.751 0 0 0 1.75-1.75v-24.22a1.75 1.75 0 0 0 -1.75-1.75zm-1.75 24.22h-29.11v-20.72h29.11z"/><path d="m32.015 28.507h5.11v3.795h-5.11z"/><path d="m40.64 28.507h5.11v3.795h-5.11z"/><path d="m49.265 28.507h5.11v3.795h-5.11z"/><path d="m32.015 34.882h5.11v3.795h-5.11z"/><path d="m40.64 34.882h5.11v3.795h-5.11z"/><path d="m49.265 34.882h5.11v3.795h-5.11z"/><path d="m32.015 41.257h5.11v3.795h-5.11z"/><path d="m40.64 41.257h5.11v3.795h-5.11z"/><path d="m49.265 41.257h5.11v3.795h-5.11z"/><path d="m59.5 56.14h-32.61a1.75 1.75 0 0 0 -1.75 1.75v24.23a1.75 1.75 0 0 0 1.75 1.75h32.61a1.75 1.75 0 0 0 1.75-1.75v-24.23a1.75 1.75 0 0 0 -1.75-1.75zm-1.75 24.23h-29.11v-20.73h29.11z"/><path d="m101.11 22.92h-32.61a1.75 1.75 0 0 0 -1.75 1.75v24.22a1.751 1.751 0 0 0 1.75 1.75h32.61a1.751 1.751 0 0 0 1.75-1.75v-24.22a1.75 1.75 0 0 0 -1.75-1.75zm-1.75 24.22h-29.11v-20.72h29.11z"/><path d="m101.11 56.14h-32.61a1.75 1.75 0 0 0 -1.75 1.75v24.23a1.75 1.75 0 0 0 1.75 1.75h32.61a1.75 1.75 0 0 0 1.75-1.75v-24.23a1.75 1.75 0 0 0 -1.75-1.75zm-1.75 24.23h-29.11v-20.73h29.11z"/><path d="m73.625 28.507h5.11v3.795h-5.11z"/><path d="m82.25 28.507h5.11v3.795h-5.11z"/><path d="m90.875 28.507h5.11v3.795h-5.11z"/><path d="m73.625 34.882h5.11v3.795h-5.11z"/><path d="m82.25 34.882h5.11v3.795h-5.11z"/><path d="m90.875 34.882h5.11v3.795h-5.11z"/><path d="m73.625 41.257h5.11v3.795h-5.11z"/><path d="m82.25 41.257h5.11v3.795h-5.11z"/><path d="m90.875 41.257h5.11v3.795h-5.11z"/><path d="m32.015 61.732h5.11v3.795h-5.11z"/><path d="m40.64 61.732h5.11v3.795h-5.11z"/><path d="m49.265 61.732h5.11v3.795h-5.11z"/><path d="m32.015 68.107h5.11v3.795h-5.11z"/><path d="m40.64 68.107h5.11v3.795h-5.11z"/><path d="m49.265 68.107h5.11v3.795h-5.11z"/><path d="m32.015 74.482h5.11v3.795h-5.11z"/><path d="m40.64 74.482h5.11v3.795h-5.11z"/><path d="m49.265 74.482h5.11v3.795h-5.11z"/><path d="m73.625 61.732h5.11v3.795h-5.11z"/><path d="m82.25 61.732h5.11v3.795h-5.11z"/><path d="m90.875 61.732h5.11v3.795h-5.11z"/><path d="m73.625 68.107h5.11v3.795h-5.11z"/><path d="m82.25 68.107h5.11v3.795h-5.11z"/><path d="m90.875 68.107h5.11v3.795h-5.11z"/><path d="m73.625 74.482h5.11v3.795h-5.11z"/><path d="m82.25 74.482h5.11v3.795h-5.11z"/><path d="m90.875 74.482h5.11v3.795h-5.11z"/></svg>