<?xml version="1.0"?>
<svg xmlns="http://www.w3.org/2000/svg" id="Layer_1" data-name="Layer 1" viewBox="0 0 128 128" width="512" height="512"><title>WATER DISPENSER</title><path d="M80.75,68.254H73.935v-3.42l9.721-7.874a13.684,13.684,0,0,0,4.969-8.9H89a1.75,1.75,0,0,0,0-3.5h-.25V37H89a1.75,1.75,0,0,0,0-3.5h-.25V25.942H89a1.75,1.75,0,0,0,0-3.5h-.25V18.5A13.765,13.765,0,0,0,75,4.75H53A13.765,13.765,0,0,0,39.25,18.5v3.942H39a1.75,1.75,0,0,0,0,3.5h.25V33.5H39A1.75,1.75,0,0,0,39,37h.25v7.558H39a1.75,1.75,0,0,0,0,3.5h.376a13.675,13.675,0,0,0,4.969,8.9l9.72,7.874v3.42H47.25A13.765,13.765,0,0,0,33.5,82v39.5a1.75,1.75,0,0,0,1.75,1.75h57.5a1.75,1.75,0,0,0,1.75-1.75V82A13.765,13.765,0,0,0,80.75,68.254ZM42.75,18.5A10.261,10.261,0,0,1,53,8.25H75A10.261,10.261,0,0,1,85.25,18.5v3.942H42.75Zm0,7.442h42.5V33.5H42.75ZM42.75,37h42.5v7.558H42.75Zm.17,11.058H85.08a10.191,10.191,0,0,1-3.628,6.183L71.565,62.25H56.435l-9.887-8.009A10.191,10.191,0,0,1,42.92,48.058ZM57.565,65.75h12.87v2.5H57.565ZM46,119.75V85a4.255,4.255,0,0,1,4.25-4.25h27.5A4.255,4.255,0,0,1,82,85V119.75Zm45,0H85.5V85a7.759,7.759,0,0,0-7.75-7.75H50.25A7.759,7.759,0,0,0,42.5,85V119.75H37V82a10.261,10.261,0,0,1,10.25-10.25h33.5A10.261,10.261,0,0,1,91,82Z"/><path d="M59.187,91.879h-6a1.75,1.75,0,0,0-1.75,1.75v9.125a1.75,1.75,0,0,0,1.75,1.75H54.44v2.586a1.75,1.75,0,0,0,3.5,0V104.5h1.247a1.749,1.749,0,0,0,1.75-1.75V93.629A1.749,1.749,0,0,0,59.187,91.879Zm-4.25,3.5h2.5V101H56.229c-.013,0-.026,0-.039,0s-.026,0-.039,0H54.937Z"/><path d="M74.812,91.879h-6a1.75,1.75,0,0,0-1.75,1.75v9.125a1.75,1.75,0,0,0,1.75,1.75H70.06v2.586a1.75,1.75,0,0,0,3.5,0V104.5h1.252a1.749,1.749,0,0,0,1.75-1.75V93.629A1.749,1.749,0,0,0,74.812,91.879Zm-4.25,3.5h2.5V101H71.849c-.013,0-.026,0-.039,0s-.026,0-.039,0H70.562Z"/><path d="M75,10.75H69.094a1.75,1.75,0,0,0,0,3.5H75a1.75,1.75,0,0,0,0-3.5Z"/><path d="M62.375,10.75H59.75a1.75,1.75,0,0,0,0,3.5h2.625a1.75,1.75,0,0,0,0-3.5Z"/></svg>
